<svg width="19" height="19" viewBox="0 0 19 19" fill="none" xmlns="http://www.w3.org/2000/svg">
<path d="M17.2179 11.0502H11.6127C11.3139 11.0502 11.0714 11.2927 11.0714 11.5915V17.1965C11.0714 18.092 10.3426 18.8205 9.44736 18.8205C8.55216 18.8205 7.82332 18.092 7.82332 17.1965V11.5915C7.82332 11.2927 7.58084 11.0502 7.28197 11.0502H1.67678C0.781579 11.0502 0.0527344 10.3217 0.0527344 9.42623C0.0527344 8.53071 0.781579 7.80189 1.67678 7.80189H7.28197C7.58084 7.80189 7.82332 7.55943 7.82332 7.26057V1.65523C7.82332 0.759715 8.55216 0.03125 9.44736 0.03125C10.3426 0.03125 11.0714 0.759715 11.0714 1.65523V7.26057C11.0714 7.55943 11.3139 7.80189 11.6127 7.80189H17.2179C18.1131 7.80189 18.842 8.53036 18.842 9.42587C18.842 10.3214 18.1131 11.0502 17.2179 11.0502Z" fill="white"/>
</svg>
