<svg width="47" height="47" viewBox="0 0 47 47" fill="none" xmlns="http://www.w3.org/2000/svg">
<circle cx="23.5" cy="23.5" r="23.5" fill="#D7EAF3"/>
<g clip-path="url(#clip0_2001_1055)">
<path d="M30.0299 25.4902L29.0299 23.8302C28.7951 23.37 28.6589 22.8659 28.6299 22.3502V19.8202C28.6289 18.7042 28.3118 17.6113 27.7154 16.668C27.119 15.7248 26.2676 14.9697 25.2599 14.4902C25.0027 14.0335 24.6276 13.6543 24.1738 13.3922C23.7199 13.1301 23.204 12.9947 22.6799 13.0002C22.1519 12.9996 21.6333 13.1402 21.1779 13.4075C20.7225 13.6747 20.3469 14.0589 20.0899 14.5202C19.1013 15.0091 18.2686 15.7642 17.6857 16.7005C17.1027 17.6368 16.7925 18.7172 16.7899 19.8202V22.3502C16.7622 22.863 16.6259 23.364 16.3899 23.8202L15.3799 25.4902C15.1787 25.7965 15.0523 26.1458 15.011 26.51C14.9697 26.8741 15.0146 27.2429 15.1421 27.5865C15.2696 27.9301 15.4761 28.2389 15.745 28.4879C16.0139 28.737 16.3376 28.9193 16.6899 29.0202C18.6294 29.6741 20.6632 30.0051 22.7099 30.0002C24.7558 30.0036 26.7887 29.676 28.7299 29.0302C29.0738 28.9159 29.3875 28.7255 29.6477 28.4733C29.9078 28.2211 30.1078 27.9135 30.2327 27.5733C30.3577 27.2332 30.4043 26.8693 30.3692 26.5086C30.3341 26.1479 30.2181 25.7998 30.0299 25.4902Z" fill="#051a53"/>
<path d="M25.5191 31.01C25.3088 31.5922 24.9244 32.0954 24.4181 32.4515C23.9118 32.8075 23.3081 32.999 22.6891 33C22.2943 33.0003 21.9034 32.9217 21.5394 32.7689C21.1753 32.616 20.8455 32.392 20.5691 32.11C20.25 31.8016 20.0099 31.4209 19.8691 31C19.9991 31.02 20.1291 31.03 20.2691 31.05C20.4991 31.08 20.7391 31.11 20.9791 31.13C21.5491 31.18 22.1291 31.21 22.7091 31.21C23.2891 31.21 23.8491 31.18 24.4091 31.13C24.6191 31.11 24.8291 31.1 25.0291 31.07L25.5191 31.01Z" fill="#051a53"/>
</g>
<defs>
<clipPath id="clip0_2001_1055">
<rect width="15.384" height="20" fill="white" transform="translate(15 13)"/>
</clipPath>
</defs>
</svg>
