<svg width="15" height="15" viewBox="0 0 15 15" fill="none" xmlns="http://www.w3.org/2000/svg">
<path d="M8.23512 13.256L7.52512 13.941C7.37921 14.0806 7.18506 14.1585 6.98312 14.1585C6.78118 14.1585 6.58703 14.0806 6.44112 13.941L0.225123 7.94102C0.153878 7.87381 0.0971157 7.79275 0.0583196 7.70281C0.0195236 7.61288 -0.000488281 7.51596 -0.000488281 7.41802C-0.000488281 7.32007 0.0195236 7.22316 0.0583196 7.13322C0.0971157 7.04329 0.153878 6.96223 0.225123 6.89502L6.44112 0.895017C6.58703 0.755411 6.78118 0.67749 6.98312 0.67749C7.18506 0.67749 7.37921 0.755411 7.52512 0.895017L8.23512 1.58002C8.30692 1.64856 8.36383 1.73115 8.40232 1.82265C8.4408 1.91415 8.46003 2.01259 8.45881 2.11185C8.45759 2.2111 8.43595 2.30904 8.39523 2.39956C8.35451 2.49009 8.29558 2.57126 8.22212 2.63802L4.37012 6.18702H13.5591C13.6582 6.18503 13.7567 6.20265 13.849 6.23886C13.9412 6.27508 14.0254 6.32917 14.0967 6.39803C14.168 6.4669 14.2249 6.54917 14.2643 6.64012C14.3037 6.73108 14.3247 6.82892 14.3261 6.92802V7.91502C14.3247 8.01412 14.3037 8.11196 14.2643 8.20291C14.2249 8.29386 14.168 8.37614 14.0967 8.445C14.0254 8.51386 13.9412 8.56796 13.849 8.60417C13.7567 8.64038 13.6582 8.658 13.5591 8.65602H4.37012L8.22312 12.198C8.29718 12.2644 8.35663 12.3455 8.39769 12.4361C8.43876 12.5267 8.46055 12.6249 8.46167 12.7244C8.4628 12.8239 8.44325 12.9225 8.40425 13.014C8.36525 13.1055 8.30766 13.1879 8.23512 13.256Z" fill="#2CA0DA" fill-opacity="0.837772"/>
</svg>
