<svg width="15" height="14" viewBox="0 0 15 14" fill="none" xmlns="http://www.w3.org/2000/svg">
<path d="M6.24278 12.862L6.95279 13.547C7.09869 13.6866 7.29285 13.7645 7.49479 13.7645C7.69672 13.7645 7.89088 13.6866 8.03679 13.547L14.2528 7.54697C14.324 7.47976 14.3808 7.3987 14.4196 7.30877C14.4584 7.21883 14.4784 7.12192 14.4784 7.02397C14.4784 6.92603 14.4584 6.82912 14.4196 6.73918C14.3808 6.64925 14.324 6.56819 14.2528 6.50097L8.03679 0.500974C7.89088 0.361368 7.69672 0.283447 7.49479 0.283447C7.29285 0.283447 7.09869 0.361368 6.95279 0.500974L6.24278 1.18597C6.1698 1.25452 6.11185 1.33749 6.07261 1.42961C6.03337 1.52172 6.01369 1.62099 6.01482 1.72111C6.01594 1.82123 6.03786 1.92003 6.07916 2.01124C6.12047 2.10245 6.18028 2.18409 6.25479 2.25097L10.1078 5.79297H0.918785C0.719242 5.79003 0.526692 5.86643 0.383438 6.00537C0.240184 6.14431 0.157944 6.33443 0.154785 6.53397L0.154785 7.52097C0.156347 7.62003 0.177441 7.71781 0.21686 7.80871C0.256278 7.8996 0.313246 7.98182 0.384498 8.05066C0.45575 8.11949 0.539886 8.17359 0.632084 8.20986C0.724282 8.24612 0.82273 8.26383 0.921785 8.26197H10.1078L6.25479 11.804C6.18073 11.8704 6.12128 11.9515 6.08022 12.0421C6.03915 12.1327 6.01736 12.2309 6.01623 12.3303C6.01511 12.4298 6.03466 12.5284 6.07366 12.62C6.11266 12.7115 6.17025 12.7939 6.24278 12.862Z" fill="#0096DF"/>
</svg>
