<svg width="27" height="23" viewBox="0 0 27 23" fill="none" xmlns="http://www.w3.org/2000/svg">
<path d="M20.25 0H6.75C2.7 0 0 2.02941 0 6.76471V16.2353C0 20.9706 2.7 23 6.75 23H20.25C24.3 23 27 20.9706 27 16.2353V6.76471C27 2.02941 24.3 0 20.25 0ZM6.4125 16.9118C6.4125 17.4665 5.9535 17.9265 5.4 17.9265C4.8465 17.9265 4.3875 17.4665 4.3875 16.9118V6.08824C4.3875 5.53353 4.8465 5.07353 5.4 5.07353C5.9535 5.07353 6.4125 5.53353 6.4125 6.08824V16.9118ZM10.4625 16.9118C10.4625 17.4665 10.0035 17.9265 9.45 17.9265C8.8965 17.9265 8.4375 17.4665 8.4375 16.9118V15.5588C8.4375 15.0041 8.8965 14.5441 9.45 14.5441C10.0035 14.5441 10.4625 15.0041 10.4625 15.5588V16.9118ZM10.4625 11.5C10.4625 12.0547 10.0035 12.5147 9.45 12.5147C8.8965 12.5147 8.4375 12.0547 8.4375 11.5V6.08824C8.4375 5.53353 8.8965 5.07353 9.45 5.07353C10.0035 5.07353 10.4625 5.53353 10.4625 6.08824V11.5ZM14.5125 16.9118C14.5125 17.4665 14.0535 17.9265 13.5 17.9265C12.9465 17.9265 12.4875 17.4665 12.4875 16.9118V6.08824C12.4875 5.53353 12.9465 5.07353 13.5 5.07353C14.0535 5.07353 14.5125 5.53353 14.5125 6.08824V16.9118ZM18.5625 16.9118C18.5625 17.4665 18.1035 17.9265 17.55 17.9265C16.9965 17.9265 16.5375 17.4665 16.5375 16.9118V11.5C16.5375 10.9453 16.9965 10.4853 17.55 10.4853C18.1035 10.4853 18.5625 10.9453 18.5625 11.5V16.9118ZM18.5625 7.44118C18.5625 7.99588 18.1035 8.45588 17.55 8.45588C16.9965 8.45588 16.5375 7.99588 16.5375 7.44118V6.08824C16.5375 5.53353 16.9965 5.07353 17.55 5.07353C18.1035 5.07353 18.5625 5.53353 18.5625 6.08824V7.44118ZM22.6125 16.9118C22.6125 17.4665 22.1535 17.9265 21.6 17.9265C21.0465 17.9265 20.5875 17.4665 20.5875 16.9118V6.08824C20.5875 5.53353 21.0465 5.07353 21.6 5.07353C22.1535 5.07353 22.6125 5.53353 22.6125 6.08824V16.9118Z" fill="white"/>
</svg>
