<svg width="17" height="17" viewBox="0 0 17 17" fill="none" xmlns="http://www.w3.org/2000/svg">
<path d="M8.61898 0.000797025C3.83861 -0.0640653 -0.0640686 3.83841 0.000797067 8.61854C0.0643207 13.2027 3.79745 16.9357 8.38189 16.9992C13.1623 17.0645 17.0649 13.1625 16.9992 8.38235C16.9366 3.79725 13.2034 0.0643173 8.61898 0.000797025ZM14.316 8.3658C14.3418 9.43064 14.0729 10.4819 13.5389 11.4036C13.5182 11.4391 13.4896 11.4693 13.4554 11.492C13.4211 11.5147 13.3821 11.5292 13.3413 11.5344C13.3006 11.5397 13.2592 11.5355 13.2203 11.5222C13.1814 11.5089 13.1461 11.4868 13.1171 11.4577L5.54211 3.88493C5.51301 3.85592 5.49096 3.82062 5.47766 3.78174C5.46436 3.74286 5.46016 3.70145 5.46539 3.6607C5.47062 3.61994 5.48514 3.58094 5.50783 3.54668C5.53051 3.51242 5.56076 3.48383 5.59624 3.4631C6.51797 2.92865 7.56947 2.65929 8.63464 2.68475C11.7276 2.75633 14.2444 5.27298 14.316 8.3658ZM2.68981 8.69906C2.65562 7.73935 2.86086 6.78622 3.28703 5.92563C3.30568 5.88711 3.33328 5.85361 3.36752 5.82793C3.40176 5.80224 3.44164 5.78512 3.48385 5.77798C3.52605 5.77085 3.56935 5.77391 3.61013 5.78691C3.65091 5.79991 3.68799 5.82247 3.71827 5.85272L11.1452 13.2833C11.1754 13.3135 11.198 13.3506 11.211 13.3914C11.224 13.4322 11.227 13.4755 11.2199 13.5177C11.2128 13.5599 11.1956 13.5998 11.17 13.634C11.1443 13.6682 11.1108 13.6958 11.0722 13.7145C10.2116 14.1406 9.25844 14.3458 8.29868 14.3117C5.25805 14.2092 2.79092 11.7427 2.68847 8.69995L2.68981 8.69906Z" fill="#F27F81"/>
</svg>
