<svg width="43" height="43" viewBox="0 0 43 43" fill="none" xmlns="http://www.w3.org/2000/svg">
<circle cx="21.5" cy="21.5" r="21.5" fill="#D8E1ED" fill-opacity="0.37"/>
<path d="M24.9308 15.6683V14.5417C24.9308 14.2456 24.6853 14 24.3892 14C24.0931 14 23.8475 14.2456 23.8475 14.5417V15.625H19.1531V14.5417C19.1531 14.2456 18.9075 14 18.6114 14C18.3153 14 18.0697 14.2456 18.0697 14.5417V15.6683C16.1197 15.8489 15.1736 17.0117 15.0292 18.7378C15.0147 18.9472 15.1881 19.1206 15.3903 19.1206H27.6103C27.8197 19.1206 27.9931 18.94 27.9714 18.7378C27.8269 17.0117 26.8808 15.8489 24.9308 15.6683Z" fill="#051a53"/>
<path d="M27.2778 20.2039H15.7222C15.325 20.2039 15 20.5289 15 20.9261V25.375C15 27.5416 16.0833 28.9861 18.6111 28.9861H24.3889C26.9167 28.9861 28 27.5416 28 25.375V20.9261C28 20.5289 27.675 20.2039 27.2778 20.2039ZM19.485 26.2489C19.4489 26.2777 19.4128 26.3139 19.3767 26.3355C19.3333 26.3644 19.29 26.3861 19.2467 26.4005C19.2033 26.4222 19.16 26.4366 19.1167 26.4439C19.0661 26.4511 19.0228 26.4583 18.9722 26.4583C18.8783 26.4583 18.7844 26.4366 18.6978 26.4005C18.6039 26.3644 18.5317 26.3139 18.4594 26.2489C18.3294 26.1116 18.25 25.9239 18.25 25.7361C18.25 25.5483 18.3294 25.3605 18.4594 25.2233C18.5317 25.1583 18.6039 25.1077 18.6978 25.0716C18.8278 25.0139 18.9722 24.9994 19.1167 25.0283C19.16 25.0355 19.2033 25.05 19.2467 25.0716C19.29 25.0861 19.3333 25.1077 19.3767 25.1366C19.4128 25.1655 19.4489 25.1944 19.485 25.2233C19.615 25.3605 19.6944 25.5483 19.6944 25.7361C19.6944 25.9239 19.615 26.1116 19.485 26.2489ZM19.485 23.7211C19.3478 23.8511 19.16 23.9305 18.9722 23.9305C18.7844 23.9305 18.5967 23.8511 18.4594 23.7211C18.3294 23.5839 18.25 23.3961 18.25 23.2083C18.25 23.0205 18.3294 22.8327 18.4594 22.6955C18.6617 22.4933 18.9794 22.4283 19.2467 22.5439C19.3406 22.58 19.42 22.6305 19.485 22.6955C19.615 22.8327 19.6944 23.0205 19.6944 23.2083C19.6944 23.3961 19.615 23.5839 19.485 23.7211ZM22.0128 26.2489C21.8756 26.3789 21.6878 26.4583 21.5 26.4583C21.3122 26.4583 21.1244 26.3789 20.9872 26.2489C20.8572 26.1116 20.7778 25.9239 20.7778 25.7361C20.7778 25.5483 20.8572 25.3605 20.9872 25.2233C21.2544 24.9561 21.7456 24.9561 22.0128 25.2233C22.1428 25.3605 22.2222 25.5483 22.2222 25.7361C22.2222 25.9239 22.1428 26.1116 22.0128 26.2489ZM22.0128 23.7211C21.9767 23.75 21.9406 23.7789 21.9044 23.8077C21.8611 23.8366 21.8178 23.8583 21.7744 23.8727C21.7311 23.8944 21.6878 23.9089 21.6444 23.9161C21.5939 23.9233 21.5506 23.9305 21.5 23.9305C21.3122 23.9305 21.1244 23.8511 20.9872 23.7211C20.8572 23.5839 20.7778 23.3961 20.7778 23.2083C20.7778 23.0205 20.8572 22.8327 20.9872 22.6955C21.0522 22.6305 21.1317 22.58 21.2256 22.5439C21.4928 22.4283 21.8106 22.4933 22.0128 22.6955C22.1428 22.8327 22.2222 23.0205 22.2222 23.2083C22.2222 23.3961 22.1428 23.5839 22.0128 23.7211ZM24.5406 26.2489C24.4033 26.3789 24.2156 26.4583 24.0278 26.4583C23.84 26.4583 23.6522 26.3789 23.515 26.2489C23.385 26.1116 23.3056 25.9239 23.3056 25.7361C23.3056 25.5483 23.385 25.3605 23.515 25.2233C23.7822 24.9561 24.2733 24.9561 24.5406 25.2233C24.6706 25.3605 24.75 25.5483 24.75 25.7361C24.75 25.9239 24.6706 26.1116 24.5406 26.2489ZM24.5406 23.7211C24.5044 23.75 24.4683 23.7789 24.4322 23.8077C24.3889 23.8366 24.3456 23.8583 24.3022 23.8727C24.2589 23.8944 24.2156 23.9089 24.1722 23.9161C24.1217 23.9233 24.0711 23.9305 24.0278 23.9305C23.84 23.9305 23.6522 23.8511 23.515 23.7211C23.385 23.5839 23.3056 23.3961 23.3056 23.2083C23.3056 23.0205 23.385 22.8327 23.515 22.6955C23.5872 22.6305 23.6594 22.58 23.7533 22.5439C23.8833 22.4861 24.0278 22.4716 24.1722 22.5005C24.2156 22.5077 24.2589 22.5222 24.3022 22.5439C24.3456 22.5583 24.3889 22.58 24.4322 22.6089C24.4683 22.6377 24.5044 22.6666 24.5406 22.6955C24.6706 22.8327 24.75 23.0205 24.75 23.2083C24.75 23.3961 24.6706 23.5839 24.5406 23.7211Z" fill="#051a53"/>
</svg>
