<svg width="37" height="37" viewBox="0 0 37 37" fill="none" xmlns="http://www.w3.org/2000/svg">
<circle cx="18.5" cy="18.5" r="18.5" fill="#F1F4F9"/>
<path d="M23.25 11H13.75C10.9 11 9 12.4118 9 15.7059V22.2941C9 25.5882 10.9 27 13.75 27H23.25C26.1 27 28 25.5882 28 22.2941V15.7059C28 12.4118 26.1 11 23.25 11ZM13.0375 21.3529C13.0375 21.7388 12.7145 22.0588 12.325 22.0588C11.9355 22.0588 11.6125 21.7388 11.6125 21.3529V16.6471C11.6125 16.2612 11.9355 15.9412 12.325 15.9412C12.7145 15.9412 13.0375 16.2612 13.0375 16.6471V21.3529ZM18.5 21.8235C16.923 21.8235 15.65 20.5624 15.65 19C15.65 17.4376 16.923 16.1765 18.5 16.1765C20.077 16.1765 21.35 17.4376 21.35 19C21.35 20.5624 20.077 21.8235 18.5 21.8235ZM25.3875 21.3529C25.3875 21.7388 25.0645 22.0588 24.675 22.0588C24.2855 22.0588 23.9625 21.7388 23.9625 21.3529V16.6471C23.9625 16.2612 24.2855 15.9412 24.675 15.9412C25.0645 15.9412 25.3875 16.2612 25.3875 16.6471V21.3529Z" fill="#3982A7"/>
</svg>
