<svg width="27" height="27" viewBox="0 0 27 27" fill="none" xmlns="http://www.w3.org/2000/svg">
<circle cx="13.5" cy="13.5" r="13.5" fill="#DFF5FF"/>
<path d="M18.2661 16.8362C18.3723 16.9271 18.4585 17.039 18.5194 17.1649C18.5803 17.2907 18.6145 17.4278 18.6199 17.5674C18.6253 17.7071 18.6017 17.8464 18.5508 17.9766C18.4998 18.1067 18.4224 18.225 18.3236 18.3238C18.2247 18.4227 18.1065 18.5 17.9763 18.551C17.8462 18.602 17.7069 18.6255 17.5672 18.6201C17.4275 18.6147 17.2904 18.5805 17.1646 18.5196C17.0388 18.4588 16.9269 18.3725 16.8359 18.2663L13.9655 15.3959L11.095 18.2663C11.0041 18.3725 10.8922 18.4588 10.7663 18.5196C10.6405 18.5805 10.5034 18.6147 10.3638 18.6201C10.2241 18.6255 10.0848 18.602 9.95461 18.551C9.82445 18.5 9.70623 18.4227 9.60738 18.3238C9.50854 18.225 9.43119 18.1067 9.38019 17.9766C9.3292 17.8464 9.30566 17.7071 9.31106 17.5674C9.31645 17.4278 9.35067 17.2907 9.41155 17.1649C9.47243 17.039 9.55867 16.9271 9.66484 16.8362L12.5353 13.9657L9.66484 11.0953C9.49868 10.9012 9.41185 10.6516 9.42171 10.3963C9.43157 10.1411 9.53739 9.89892 9.71803 9.71828C9.89867 9.53763 10.1408 9.43181 10.3961 9.42195C10.6514 9.41209 10.901 9.49892 11.095 9.66509L13.9655 12.5356L16.8359 9.66509C16.9269 9.55891 17.0388 9.47267 17.1646 9.41179C17.2904 9.35091 17.4275 9.3167 17.5672 9.3113C17.7069 9.30591 17.8462 9.32944 17.9763 9.38044C18.1065 9.43143 18.2247 9.50878 18.3236 9.60763C18.4224 9.70648 18.4998 9.82469 18.5508 9.95485C18.6017 10.085 18.6253 10.2243 18.6199 10.364C18.6145 10.5037 18.5803 10.6407 18.5194 10.7666C18.4585 10.8924 18.3723 11.0043 18.2661 11.0953L15.3956 13.9657L18.2661 16.8362Z" fill="#B8B8B8"/>
</svg>
