<svg width="43" height="43" viewBox="0 0 43 43" fill="none" xmlns="http://www.w3.org/2000/svg">
<circle cx="21.5" cy="21.5" r="21.5" fill="#D8E1ED" fill-opacity="0.37"/>
<path d="M21.619 13.0008C16.8386 12.9359 12.9359 16.8384 13.0008 21.6185C13.0643 26.2027 16.7975 29.9357 21.3819 29.9992C26.1623 30.0645 30.0649 26.1625 29.9992 21.3823C29.9366 16.7973 26.2034 13.0643 21.619 13.0008ZM27.316 21.3658C27.3418 22.4306 27.0729 23.4819 26.5389 24.4036C26.5182 24.4391 26.4896 24.4693 26.4554 24.492C26.4211 24.5147 26.3821 24.5292 26.3413 24.5344C26.3006 24.5397 26.2592 24.5355 26.2203 24.5222C26.1814 24.5089 26.1461 24.4868 26.1171 24.4577L18.5421 16.8849C18.513 16.8559 18.491 16.8206 18.4777 16.7817C18.4644 16.7429 18.4602 16.7015 18.4654 16.6607C18.4706 16.6199 18.4851 16.5809 18.5078 16.5467C18.5305 16.5124 18.5608 16.4838 18.5962 16.4631C19.518 15.9287 20.5695 15.6593 21.6346 15.6848C24.7276 15.7563 27.2444 18.273 27.316 21.3658ZM15.6898 21.6991C15.6556 20.7393 15.8609 19.7862 16.287 18.9256C16.3057 18.8871 16.3333 18.8536 16.3675 18.8279C16.4018 18.8022 16.4416 18.7851 16.4838 18.778C16.526 18.7708 16.5693 18.7739 16.6101 18.7869C16.6509 18.7999 16.688 18.8225 16.7183 18.8527L24.1452 26.2833C24.1754 26.3135 24.198 26.3506 24.211 26.3914C24.224 26.4322 24.227 26.4755 24.2199 26.5177C24.2128 26.5599 24.1956 26.5998 24.17 26.634C24.1443 26.6682 24.1108 26.6958 24.0722 26.7145C23.2116 27.1406 22.2584 27.3458 21.2987 27.3117C18.258 27.2092 15.7909 24.7427 15.6885 21.6999L15.6898 21.6991Z" fill="#3982A7"/>
</svg>
