<svg width="95" height="93" viewBox="0 0 95 93" fill="none" xmlns="http://www.w3.org/2000/svg">
<path fill-rule="evenodd" clip-rule="evenodd" d="M71.2407 56.2077L58.5165 68.9286V28.2012C58.5238 27.6036 58.4124 27.0105 58.1888 26.4563C57.9652 25.9021 57.6338 25.3978 57.2138 24.9726C56.7938 24.5475 56.2936 24.2099 55.7421 23.9795C55.1907 23.7491 54.599 23.6305 54.0014 23.6305C53.4037 23.6305 52.812 23.7491 52.2606 23.9795C51.7092 24.2099 51.209 24.5475 50.789 24.9726C50.369 25.3978 50.0375 25.9021 49.8139 26.4563C49.5903 27.0105 49.4789 27.6036 49.4862 28.2012V68.9286L36.7653 56.2077C35.9195 55.3611 34.772 54.8851 33.5753 54.8845C32.3785 54.884 31.2306 55.3588 30.384 56.2046C29.5373 57.0505 29.0614 58.198 29.0608 59.3947C29.0602 60.5915 29.5351 61.7394 30.3809 62.586L50.8095 83.0173C51.6567 83.8629 52.8047 84.3378 54.0017 84.3378C55.1987 84.3378 56.3467 83.8629 57.1939 83.0173L77.6184 62.586C78.453 61.738 78.9187 60.5945 78.914 59.4046C78.9093 58.2147 78.4346 57.075 77.5932 56.2335C76.7519 55.3921 75.6122 54.9173 74.4223 54.9124C73.2325 54.9076 72.0889 55.3732 71.2407 56.2077ZM92.1757 92.1917C101.012 83.3591 106.512 71.7358 107.739 59.3025C108.966 46.8691 105.843 34.3951 98.9037 24.0059C91.9641 13.6167 81.6368 5.95524 69.6815 2.32709C57.7261 -1.30106 44.8826 -0.671434 33.3395 4.10869C21.7964 8.88882 12.268 17.5236 6.37782 28.5418C0.487677 39.5599 -1.39968 52.2796 1.03738 64.5333C3.47443 76.7871 10.0851 87.8166 19.7429 95.7426C29.4007 103.668 41.508 108 54.0017 108C61.0922 108.009 68.1146 106.617 74.6657 103.904C81.2167 101.191 87.1673 97.2107 92.1757 92.1917Z" fill="#051a53" fill-opacity="0.05"/>
</svg>
