<svg width="20" height="20" viewBox="0 0 20 20" fill="none" xmlns="http://www.w3.org/2000/svg">
<g clip-path="url(#clip0_143_7675)">
<path d="M20 5.81005V14.1901C20.0003 14.9531 19.8502 15.7087 19.5583 16.4138C19.2664 17.1188 18.8384 17.7594 18.2989 18.2989C17.7593 18.8385 17.1187 19.2664 16.4137 19.5583C15.7087 19.8502 14.9531 20.0003 14.19 20.0001H5.81C5.04695 20.0003 4.29132 19.8502 3.5863 19.5583C2.88128 19.2664 2.24068 18.8385 1.70112 18.2989C1.16156 17.7594 0.733612 17.1188 0.441725 16.4138C0.149838 15.7087 -0.00026246 14.9531 3.44503e-07 14.1901V5.81005C3.44503e-07 3.32005 1.02 1.51005 2.83 0.631052C2.98256 0.560445 3.15046 0.52944 3.31818 0.540901C3.4859 0.552363 3.64802 0.605921 3.78956 0.696626C3.9311 0.787331 4.04749 0.912254 4.12797 1.05985C4.20845 1.20744 4.25042 1.37294 4.25 1.54105V10.4211C4.2113 10.9332 4.31055 11.4463 4.53742 11.9071C4.76429 12.3679 5.11049 12.7594 5.54 13.0411C6.01579 13.2675 6.54397 13.361 7.06859 13.3117C7.59321 13.2625 8.09472 13.0722 8.52 12.7611L9.82 11.9811C9.92965 11.9431 10.0483 11.9396 10.16 11.9711L11.48 12.7611C12.0298 13.1154 12.6661 13.3125 13.32 13.3311C13.7263 13.3345 14.1263 13.2311 14.48 13.0311C14.9043 12.7479 15.2455 12.3568 15.4687 11.8982C15.6919 11.4395 15.789 10.9297 15.75 10.4211V1.54005C15.7498 1.37203 15.7918 1.20665 15.8724 1.05919C15.9529 0.911732 16.0693 0.786946 16.2109 0.696358C16.3524 0.60577 16.5144 0.552299 16.6821 0.540885C16.8497 0.529471 17.0175 0.560481 17.17 0.631052C18.98 1.51005 20 3.32005 20 5.81005Z" fill="white"/>
<path d="M13.2499 0C13.5151 0 13.7695 0.105357 13.957 0.292893C14.1445 0.48043 14.2499 0.734784 14.2499 1V10.42C14.2809 10.6645 14.2495 10.9129 14.1586 11.142C14.0676 11.371 13.9202 11.5733 13.7299 11.73C13.4815 11.8167 13.2151 11.8383 12.956 11.7928C12.6969 11.7472 12.4538 11.6361 12.2499 11.47L10.9299 10.68C10.6437 10.5273 10.3243 10.4475 9.99989 10.4475C9.6755 10.4475 9.3561 10.5273 9.06989 10.68L7.74989 11.47C7.54473 11.6339 7.30169 11.7435 7.04309 11.789C6.78448 11.8344 6.51861 11.8141 6.26989 11.73C6.07962 11.5733 5.93214 11.371 5.84121 11.142C5.75028 10.9129 5.71886 10.6645 5.74989 10.42V1C5.74989 0.734784 5.85525 0.48043 6.04278 0.292893C6.23032 0.105357 6.48467 0 6.74989 0L13.2499 0Z" fill="white"/>
</g>
<defs>
<clipPath id="clip0_143_7675">
<rect width="20" height="20" fill="white"/>
</clipPath>
</defs>
</svg>
