<svg width="15" height="20" viewBox="0 0 15 20" fill="none" xmlns="http://www.w3.org/2000/svg">
<path d="M7.04004 -9.65396e-05C5.79463 0.00429806 4.60085 0.49806 3.71619 1.37468C2.83154 2.25131 2.32692 3.44054 2.31117 4.68587C2.29542 5.93119 2.76981 7.1328 3.63202 8.03152C4.49422 8.93023 5.67514 9.45402 6.92004 9.4899C6.99303 9.47986 7.06706 9.47986 7.14004 9.4899H7.21004C8.46003 9.45497 9.64572 8.92812 10.5094 8.02387C11.3731 7.11961 11.8451 5.91102 11.8227 4.66075C11.8003 3.41048 11.2854 2.21957 10.3898 1.34683C9.49427 0.474087 8.29048 -0.009952 7.04004 -9.65396e-05Z" fill="white"/>
<path d="M12.12 12.1499C10.5846 11.2368 8.83135 10.7549 7.045 10.7549C5.25865 10.7549 3.50538 11.2368 1.97 12.1499C1.39742 12.4802 0.916982 12.9491 0.572775 13.5134C0.228568 14.0778 0.0316185 14.7196 0 15.3799C0.0308741 16.0365 0.226615 16.6747 0.569164 17.2357C0.911712 17.7967 1.39003 18.2624 1.96 18.5899C3.48045 19.5433 5.24566 20.0332 7.04 19.9999C8.83434 20.0332 10.5996 19.5433 12.12 18.5899C12.6908 18.2584 13.1694 17.7891 13.5118 17.2248C13.8542 16.6605 14.0496 16.0192 14.08 15.3599C14.047 14.7038 13.8504 14.0664 13.5081 13.5057C13.1658 12.945 12.6886 12.4789 12.12 12.1499Z" fill="white"/>
</svg>
