<svg width="20" height="20" viewBox="0 0 20 20" fill="none" xmlns="http://www.w3.org/2000/svg">
<g clip-path="url(#clip0_143_7667)">
<path d="M17.98 5.81797L10.28 10.278C10.1246 10.3664 9.94884 10.4129 9.77001 10.4129C9.59118 10.4129 9.41543 10.3664 9.26001 10.278L1.56001 5.81797C1.43015 5.74415 1.3182 5.64254 1.23217 5.52042C1.14614 5.39831 1.08815 5.25869 1.06235 5.11155C1.03656 4.96442 1.04359 4.8134 1.08294 4.6693C1.1223 4.52519 1.19301 4.39157 1.29001 4.27797C1.56459 3.95986 1.89291 3.69247 2.26001 3.48797L7.68001 0.487969C8.3336 0.167246 9.05197 0.000488281 9.78001 0.000488281C10.5081 0.000488281 11.2264 0.167246 11.88 0.487969L17.3 3.48797C17.6649 3.69569 17.9927 3.96267 18.27 4.27797C18.3632 4.39409 18.4301 4.529 18.4662 4.67342C18.5023 4.81784 18.5067 4.96836 18.4791 5.11466C18.4516 5.26095 18.3927 5.39955 18.3066 5.52095C18.2204 5.64235 18.109 5.74367 17.98 5.81797Z" fill="white"/>
<path d="M9.19994 12.1379V18.9579C9.20325 19.1306 9.16224 19.3013 9.08084 19.4537C8.99944 19.606 8.88035 19.735 8.73494 19.8283C8.58953 19.9215 8.42264 19.976 8.25021 19.9864C8.07777 19.9968 7.90554 19.9629 7.74994 19.8879C5.68994 18.8779 2.21994 16.9879 2.21994 16.9879C1.572 16.566 1.03309 15.9968 0.647252 15.3268C0.261412 14.6568 0.039597 13.905 -6.35755e-05 13.1329V7.96788C-0.00343497 7.78941 0.040458 7.61323 0.127162 7.4572C0.213867 7.30117 0.340297 7.17085 0.493628 7.07946C0.646959 6.98808 0.821734 6.93887 1.00022 6.93683C1.17871 6.9348 1.35456 6.98001 1.50994 7.06788L8.69994 11.2379C8.85186 11.3342 8.97722 11.467 9.06457 11.6242C9.15191 11.7814 9.19845 11.958 9.19994 12.1379Z" fill="white"/>
<path d="M10.34 12.1379V18.9579C10.3367 19.1306 10.3777 19.3013 10.4591 19.4537C10.5405 19.606 10.6596 19.735 10.805 19.8283C10.9504 19.9215 11.1173 19.976 11.2898 19.9864C11.4622 19.9968 11.6344 19.9629 11.79 19.8879C13.85 18.8779 17.32 16.9879 17.32 16.9879C17.968 16.566 18.5069 15.9968 18.8927 15.3268C19.2786 14.6568 19.5004 13.905 19.54 13.1329V7.96788C19.5434 7.78941 19.4995 7.61323 19.4128 7.4572C19.3261 7.30117 19.1997 7.17085 19.0463 7.07946C18.893 6.98808 18.7182 6.93887 18.5397 6.93683C18.3613 6.9348 18.1854 6.98001 18.03 7.06788L10.84 11.2379C10.6881 11.3342 10.5627 11.467 10.4754 11.6242C10.3881 11.7814 10.3415 11.958 10.34 12.1379Z" fill="white"/>
</g>
<defs>
<clipPath id="clip0_143_7667">
<rect width="19.54" height="19.991" fill="white"/>
</clipPath>
</defs>
</svg>
