<svg width="20" height="19" viewBox="0 0 20 19" fill="none" xmlns="http://www.w3.org/2000/svg">
<g clip-path="url(#clip0_143_7693)">
<path d="M18.1 6.65902C16.29 6.65902 15.55 5.37902 16.45 3.80902C16.6999 3.37256 16.7665 2.85485 16.6353 2.36935C16.504 1.88386 16.1857 1.47019 15.75 1.21902L14.02 0.229019C13.638 0.00675087 13.1834 -0.0549049 12.7559 0.0575776C12.3285 0.17006 11.9631 0.447495 11.74 0.829019L11.63 1.01902C10.73 2.58902 9.25 2.58902 8.34 1.01902L8.23 0.829019C8.1222 0.64 7.97789 0.474308 7.80545 0.341584C7.63302 0.20886 7.43591 0.111755 7.2256 0.0559201C7.01529 8.50745e-05 6.79597 -0.0133652 6.58041 0.016352C6.36485 0.0460692 6.15736 0.11836 5.97 0.229019L4.24 1.21902C3.80321 1.47174 3.48433 1.8872 3.35314 2.37448C3.22195 2.86176 3.28914 3.38116 3.54 3.81902C4.45 5.37902 3.71 6.65902 1.9 6.65902C1.39658 6.6606 0.914222 6.86129 0.558245 7.21726C0.202268 7.57324 0.00158228 8.05559 0 8.55902V10.319C0.00158228 10.8224 0.202268 11.3048 0.558245 11.6608C0.914222 12.0168 1.39658 12.2174 1.9 12.219C3.71 12.219 4.45 13.499 3.54 15.069C3.29015 15.5055 3.22353 16.0232 3.35474 16.5087C3.48596 16.9942 3.8043 17.4078 4.24 17.659L5.97 18.649C6.35203 18.8713 6.80663 18.9329 7.23406 18.8205C7.6615 18.708 8.02686 18.4305 8.25 18.049L8.36 17.859C9.26 16.289 10.74 16.289 11.65 17.859L11.76 18.049C11.9831 18.4305 12.3485 18.708 12.7759 18.8205C13.2034 18.9329 13.658 18.8713 14.04 18.649L15.77 17.659C16.2057 17.4078 16.524 16.9942 16.6553 16.5087C16.7865 16.0232 16.7199 15.5055 16.47 15.069C15.56 13.499 16.3 12.219 18.11 12.219C18.6134 12.2174 19.0958 12.0168 19.4518 11.6608C19.8077 11.3048 20.0084 10.8224 20.01 10.319V8.55902C20.0045 8.05509 19.8012 7.57349 19.4439 7.21808C19.0866 6.86266 18.604 6.66187 18.1 6.65902ZM10 12.689C9.35721 12.689 8.72886 12.4984 8.1944 12.1413C7.65994 11.7842 7.24338 11.2766 6.99739 10.6827C6.75141 10.0889 6.68705 9.43541 6.81245 8.80498C6.93785 8.17454 7.24738 7.59544 7.7019 7.14092C8.15642 6.6864 8.73552 6.37687 9.36596 6.25147C9.99639 6.12606 10.6499 6.19042 11.2437 6.43641C11.8376 6.68239 12.3452 7.09896 12.7023 7.63342C13.0594 8.16788 13.25 8.79623 13.25 9.43902C13.2484 10.3005 12.9055 11.1262 12.2963 11.7354C11.6872 12.3445 10.8615 12.6874 10 12.689Z" fill="white"/>
</g>
<defs>
<clipPath id="clip0_143_7693">
<rect width="20.01" height="18.878" fill="white"/>
</clipPath>
</defs>
</svg>
