<svg width="20" height="20" viewBox="0 0 20 20" fill="none" xmlns="http://www.w3.org/2000/svg">
<g clip-path="url(#clip0_143_7689)">
<path d="M15 3.49777e-05H5.00003C4.33293 -0.0402254 3.66487 0.0615215 3.04 0.298554C2.41512 0.535586 1.84766 0.902509 1.37508 1.37508C0.902509 1.84766 0.535586 2.41512 0.298554 3.04C0.0615215 3.66487 -0.0402254 4.33293 3.49777e-05 5.00003V11C-0.0402254 11.6671 0.0615215 12.3352 0.298554 12.9601C0.535586 13.5849 0.902509 14.1524 1.37508 14.625C1.84766 15.0976 2.41512 15.4645 3.04 15.7015C3.66487 15.9385 4.33293 16.0403 5.00003 16H9.00004L13.45 18.96C13.6004 19.0591 13.7748 19.1157 13.9547 19.1238C14.1346 19.132 14.3134 19.0915 14.4721 19.0064C14.6309 18.9214 14.7637 18.7951 14.8566 18.6409C14.9496 18.4866 14.9991 18.3101 15 18.13V16C15.6671 16.0403 16.3352 15.9385 16.9601 15.7015C17.5849 15.4645 18.1524 15.0976 18.625 14.625C19.0976 14.1524 19.4645 13.5849 19.7015 12.9601C19.9385 12.3352 20.0403 11.6671 20 11V5.00003C20.0403 4.33293 19.9385 3.66487 19.7015 3.04C19.4645 2.41512 19.0976 1.84766 18.625 1.37508C18.1524 0.902509 17.5849 0.535586 16.9601 0.298554C16.3352 0.0615215 15.6671 -0.0402254 15 3.49777e-05ZM13.5 8.82003H6.50003C6.30112 8.82003 6.11036 8.74102 5.9697 8.60037C5.82905 8.45971 5.75003 8.26895 5.75003 8.07003C5.75003 7.87112 5.82905 7.68036 5.9697 7.5397C6.11036 7.39905 6.30112 7.32003 6.50003 7.32003H13.5C13.6989 7.32003 13.8897 7.39905 14.0304 7.5397C14.171 7.68036 14.25 7.87112 14.25 8.07003C14.25 8.26895 14.171 8.45971 14.0304 8.60037C13.8897 8.74102 13.6989 8.82003 13.5 8.82003Z" fill="white"/>
</g>
<defs>
<clipPath id="clip0_143_7689">
<rect width="20" height="19.129" fill="white"/>
</clipPath>
</defs>
</svg>
