<svg width="47" height="47" viewBox="0 0 47 47" fill="none" xmlns="http://www.w3.org/2000/svg">
<circle cx="23.5" cy="23.5" r="23.5" fill="#EEECEE"/>
<g clip-path="url(#clip0_304_2190)">
<path d="M34 20.52V15.98C34 14.57 33.36 14 31.77 14H27.73C26.14 14 25.5 14.57 25.5 15.98V20.51C25.5 21.93 26.14 22.49 27.73 22.49H31.77C33.36 22.5 34 21.93 34 20.52Z" fill="#0096DF"/>
<path d="M34 31.77V27.73C34 26.14 33.36 25.5 31.77 25.5H27.73C26.14 25.5 25.5 26.14 25.5 27.73V31.77C25.5 33.36 26.14 34 27.73 34H31.77C33.36 34 34 33.36 34 31.77Z" fill="#0096DF"/>
<path d="M22.5 20.52V15.98C22.5 14.57 21.86 14 20.27 14H16.23C14.64 14 14 14.57 14 15.98V20.51C14 21.93 14.64 22.49 16.23 22.49H20.27C21.86 22.5 22.5 21.93 22.5 20.52Z" fill="#0096DF"/>
<path d="M22.5 31.77V27.73C22.5 26.14 21.86 25.5 20.27 25.5H16.23C14.64 25.5 14 26.14 14 27.73V31.77C14 33.36 14.64 34 16.23 34H20.27C21.86 34 22.5 33.36 22.5 31.77Z" fill="#0096DF"/>
</g>
<defs>
<clipPath id="clip0_304_2190">
<rect width="20" height="20" fill="white" transform="translate(14 14)"/>
</clipPath>
</defs>
</svg>
