<svg width="17" height="20" viewBox="0 0 17 20" fill="none" xmlns="http://www.w3.org/2000/svg">
<g clip-path="url(#clip0_143_7682)">
<path d="M17 14V16.5C17 17.4283 16.6313 18.3185 15.9749 18.9749C15.3185 19.6313 14.4283 20 13.5 20H3.5C2.57174 20 1.6815 19.6313 1.02513 18.9749C0.368749 18.3185 0 17.4283 0 16.5L0 15.85C0.00132189 15.0945 0.302013 14.3704 0.836206 13.8362C1.3704 13.302 2.09454 13.0013 2.85 13H16C16.2652 13 16.5196 13.1054 16.7071 13.2929C16.8946 13.4804 17 13.7348 17 14Z" fill="white"/>
<path d="M12 0H5C1 0 0 1 0 5V12.58C0.786277 11.8841 1.8 11.5 2.85 11.5H16C16.2652 11.5 16.5196 11.3946 16.7071 11.2071C16.8946 11.0196 17 10.7652 17 10.5V5C17 1 16 0 12 0ZM9.5 8.75H4.5C4.30109 8.75 4.11032 8.67098 3.96967 8.53033C3.82902 8.38968 3.75 8.19891 3.75 8C3.75 7.80109 3.82902 7.61032 3.96967 7.46967C4.11032 7.32902 4.30109 7.25 4.5 7.25H9.5C9.69891 7.25 9.88968 7.32902 10.0303 7.46967C10.171 7.61032 10.25 7.80109 10.25 8C10.25 8.19891 10.171 8.38968 10.0303 8.53033C9.88968 8.67098 9.69891 8.75 9.5 8.75ZM12.5 5.25H4.5C4.30109 5.25 4.11032 5.17098 3.96967 5.03033C3.82902 4.88968 3.75 4.69891 3.75 4.5C3.75 4.30109 3.82902 4.11032 3.96967 3.96967C4.11032 3.82902 4.30109 3.75 4.5 3.75H12.5C12.6989 3.75 12.8897 3.82902 13.0303 3.96967C13.171 4.11032 13.25 4.30109 13.25 4.5C13.25 4.69891 13.171 4.88968 13.0303 5.03033C12.8897 5.17098 12.6989 5.25 12.5 5.25Z" fill="white"/>
</g>
<defs>
<clipPath id="clip0_143_7682">
<rect width="17" height="20" fill="white"/>
</clipPath>
</defs>
</svg>
