<svg width="144" height="111" viewBox="0 0 144 111" fill="none" xmlns="http://www.w3.org/2000/svg">
<g opacity="0.05">
<path d="M58.6943 4.18678C62.7761 1.45826 67.5752 0.00127344 72.4849 0C79.0691 0.00681765 85.3817 2.62538 90.0374 7.28108C94.693 11.9368 97.3116 18.2493 97.3184 24.8334C97.3172 29.7432 95.8602 34.5424 93.1317 38.6241C90.4031 42.7059 86.5256 45.8871 81.9893 47.7654C77.453 49.6437 72.4617 50.1348 67.6463 49.1766C62.8309 48.2185 58.4078 45.8541 54.9361 42.3823C51.4643 38.9106 49.0999 34.4874 48.1418 29.6721C47.1836 24.8567 47.6748 19.8654 49.5531 15.3291C51.4314 10.7928 54.6125 6.91529 58.6943 4.18678Z" fill="#051a53"/>
<path d="M85.134 54.7467H59.8433C54.3691 54.7535 49.1211 56.9311 45.2502 60.8019C41.3794 64.6728 39.2018 69.9209 39.195 75.3951V117.2C39.195 118.295 39.6298 119.345 40.4037 120.119C41.1777 120.893 42.2275 121.328 43.3221 121.328H101.649C102.743 121.328 103.793 120.893 104.567 120.119C105.341 119.345 105.776 118.295 105.776 117.2V75.3951C105.769 69.922 103.592 64.6749 99.7228 60.8042C95.8534 56.9335 90.607 54.7552 85.134 54.7467Z" fill="#051a53"/>
<path d="M32.6771 65.5047C31.5202 68.6735 30.9296 72.0209 30.9322 75.3942V117.206C30.9313 118.612 31.1708 120.008 31.6405 121.333H13.355C10.0706 121.33 6.92175 120.024 4.59934 117.701C2.27692 115.379 0.970694 112.23 0.967285 108.945V86.1531C0.9741 80.6789 3.15174 75.4308 7.02258 71.5599C10.8934 67.6891 16.1415 65.5116 21.6157 65.5047H32.6771Z" fill="#051a53"/>
<path d="M112.291 65.5047H123.352C128.826 65.5098 134.074 67.686 137.945 71.5558C141.816 75.4256 143.994 80.673 144.001 86.1466V108.939C143.997 112.223 142.691 115.372 140.369 117.695C138.046 120.017 134.897 121.323 131.613 121.327H113.327C113.797 120.001 114.037 118.606 114.036 117.2V75.3942C114.038 72.0209 113.447 68.6735 112.291 65.5047Z" fill="#051a53"/>
<path d="M28.8799 23.1467C25.2092 23.1479 21.6213 24.2375 18.5697 26.2777C15.5181 28.3178 13.14 31.2169 11.7358 34.6084C10.3317 38 9.96464 41.7317 10.6811 45.3318C11.3975 48.932 13.1652 52.2389 15.7608 54.8345C18.3564 57.4301 21.6633 59.1978 25.2635 59.9142C28.8636 60.6307 32.5953 60.2636 35.9869 58.8595C39.3784 57.4553 42.2775 55.0772 44.3177 52.0256C46.3578 48.974 47.4474 45.3861 47.4487 41.7154C47.4419 36.7927 45.4833 32.0737 42.0025 28.5928C38.5217 25.112 33.8026 23.1535 28.8799 23.1467Z" fill="#051a53"/>
<path d="M105.773 26.276C108.827 24.2357 112.417 23.1467 116.089 23.1467C121.012 23.1535 125.731 25.112 129.212 28.5928C132.693 32.0737 134.651 36.7927 134.658 41.7154C134.658 45.3879 133.569 48.978 131.528 52.0316C129.488 55.0852 126.588 57.4652 123.195 58.8706C119.802 60.2761 116.069 60.6438 112.467 59.9273C108.865 59.2109 105.556 57.4423 102.959 54.8455C100.362 52.2486 98.5937 48.94 97.8773 45.338C97.1608 41.736 97.5285 38.0024 98.934 34.6094C100.339 31.2164 102.719 28.3164 105.773 26.276Z" fill="#051a53"/>
</g>
</svg>
