<svg width="43" height="43" viewBox="0 0 43 43" fill="none" xmlns="http://www.w3.org/2000/svg">
<circle cx="21.5" cy="21.5" r="21.5" fill="#D8E1ED" fill-opacity="0.37"/>
<g clip-path="url(#clip0_143_8523)">
<path d="M28.877 16.1455C27.6046 16.0191 26.3322 15.9242 25.0519 15.8531V15.8452L24.878 14.8178C24.7594 14.0907 24.5856 13 22.7362 13H20.6655C18.8209 13 18.6502 14.0432 18.5237 14.8099L18.3578 15.8215C17.6227 15.8689 16.8877 15.9163 16.1527 15.9874L14.5405 16.1455C14.3843 16.1602 14.2404 16.2363 14.1403 16.3571C14.0403 16.4779 13.9923 16.6335 14.007 16.7896C14.0217 16.9458 14.0978 17.0897 14.2186 17.1898C14.3394 17.2898 14.495 17.3378 14.6511 17.3231L16.2634 17.165C20.4263 16.8057 24.6145 16.8613 28.7664 17.331H28.8296C28.9773 17.3304 29.1196 17.2752 29.2291 17.176C29.3385 17.0767 29.4074 16.9405 29.4224 16.7936C29.4343 16.6357 29.3839 16.4794 29.2819 16.3583C29.18 16.2372 29.0346 16.1608 28.877 16.1455Z" fill="#F27F81"/>
<path d="M27.4213 18.4454C27.3283 18.3483 27.2167 18.2709 27.0931 18.218C26.9695 18.165 26.8365 18.1375 26.7021 18.1372H16.7139C16.5793 18.1368 16.4461 18.1639 16.3224 18.217C16.1987 18.27 16.0872 18.3477 15.9947 18.4454C15.9024 18.545 15.8309 18.662 15.7845 18.7896C15.7381 18.9172 15.7176 19.0528 15.7244 19.1884L16.2144 27.2971C16.3014 28.4984 16.412 30.0001 19.1702 30.0001H24.2442C27.0024 30.0001 27.1131 28.5063 27.2 27.2971L27.69 19.1963C27.6975 19.0595 27.6776 18.9227 27.6315 18.7937C27.5853 18.6648 27.5139 18.5464 27.4213 18.4454ZM23.0207 26.0405H20.3874C20.2302 26.0405 20.0794 25.9781 19.9682 25.8669C19.8571 25.7557 19.7946 25.605 19.7946 25.4478C19.7946 25.2906 19.8571 25.1398 19.9682 25.0286C20.0794 24.9175 20.2302 24.855 20.3874 24.855H23.0192C23.1764 24.855 23.3271 24.9175 23.4383 25.0286C23.5495 25.1398 23.6119 25.2906 23.6119 25.4478C23.6119 25.605 23.5495 25.7557 23.4383 25.8669C23.3271 25.9781 23.1764 26.0405 23.0192 26.0405H23.0207ZM23.6846 22.8792H19.733C19.5758 22.8792 19.425 22.8167 19.3138 22.7056C19.2027 22.5944 19.1402 22.4437 19.1402 22.2864C19.1402 22.1292 19.2027 21.9785 19.3138 21.8673C19.425 21.7561 19.5758 21.6937 19.733 21.6937H23.6846C23.8418 21.6937 23.9926 21.7561 24.1037 21.8673C24.2149 21.9785 24.2774 22.1292 24.2774 22.2864C24.2774 22.4437 24.2149 22.5944 24.1037 22.7056C23.9926 22.8167 23.8418 22.8792 23.6846 22.8792Z" fill="#F27F81"/>
</g>
<defs>
<clipPath id="clip0_143_8523">
<rect width="15.4241" height="17" fill="white" transform="translate(14 13)"/>
</clipPath>
</defs>
</svg>
