<svg width="144" height="144" viewBox="0 0 144 144" fill="none" xmlns="http://www.w3.org/2000/svg">
<circle cx="72" cy="72" r="72" fill="#FCC9C9" fill-opacity="0.22"/>
<circle cx="72" cy="72" r="51" fill="#F55A5A"/>
<path d="M56.5605 63.3047L58.74 89.615C58.8962 91.5124 60.5124 93 62.417 93H82.4987C84.4033 93 86.0194 91.5124 86.1756 89.615L88.355 63.3047H56.5605ZM66.3043 88.0781C65.6602 88.0781 65.1183 87.5771 65.0774 86.9245L63.847 67.073C63.8049 66.3941 64.3204 65.8101 64.9981 65.768C65.701 65.7187 66.2598 66.2403 66.3031 66.9191L67.5335 86.7707C67.5771 87.4737 67.0208 88.0781 66.3043 88.0781ZM73.6883 86.8477C73.6883 87.5278 73.1379 88.0781 72.4578 88.0781C71.7777 88.0781 71.2273 87.5278 71.2273 86.8477V66.9961C71.2273 66.316 71.7777 65.7656 72.4578 65.7656C73.1379 65.7656 73.6883 66.316 73.6883 66.9961V86.8477ZM81.0686 67.073L79.8381 86.9246C79.7977 87.5705 79.2593 88.1088 78.5332 88.0757C77.8554 88.0337 77.34 87.4497 77.382 86.7708L78.6125 66.9192C78.6546 66.2403 79.2494 65.7464 79.9175 65.7681C80.5952 65.8102 81.1107 66.3941 81.0686 67.073Z" fill="white"/>
<path d="M88.4531 55.9219H81.0703V54.6914C81.0703 52.6559 79.4144 51 77.3789 51H67.5352C65.4996 51 63.8438 52.6559 63.8438 54.6914V55.9219H56.4609C55.1018 55.9219 54 57.0236 54 58.3828C54 59.7418 55.1018 60.8438 56.4609 60.8438C67.7785 60.8438 77.136 60.8438 88.4531 60.8438C89.8123 60.8438 90.9141 59.7418 90.9141 58.3828C90.9141 57.0236 89.8123 55.9219 88.4531 55.9219ZM78.6094 55.9219H66.3047V54.6914C66.3047 54.0125 66.8563 53.4609 67.5352 53.4609H77.3789C78.0578 53.4609 78.6094 54.0125 78.6094 54.6914V55.9219Z" fill="white"/>
</svg>
