<svg width="43" height="43" viewBox="0 0 43 43" fill="none" xmlns="http://www.w3.org/2000/svg">
<circle cx="21.5" cy="21.5" r="21.5" fill="#D8E1ED" fill-opacity="0.37"/>
<path fill-rule="evenodd" clip-rule="evenodd" d="M14 20.5C14 16.4931 14 14.4896 15.2448 13.2448C16.4896 12 18.4931 12 22.5 12C26.5069 12 28.5104 12 29.7552 13.2448C31 14.4896 31 16.4931 31 20.5C31 24.5069 31 26.5104 29.7552 27.7552C28.5104 29 26.5069 29 22.5 29C18.4931 29 16.4896 29 15.2448 27.7552C14 26.5104 14 24.5069 14 20.5ZM22.5 15.6125C22.8521 15.6125 23.1375 15.8979 23.1375 16.25V20.6609L24.5992 19.1992C24.8482 18.9503 25.2518 18.9503 25.5008 19.1992C25.7497 19.4482 25.7497 19.8518 25.5008 20.1008L22.9508 22.6508C22.8312 22.7704 22.6691 22.8375 22.5 22.8375C22.3309 22.8375 22.1688 22.7704 22.0492 22.6508L19.4992 20.1008C19.2503 19.8518 19.2503 19.4482 19.4992 19.1992C19.7482 18.9503 20.1518 18.9503 20.4008 19.1992L21.8625 20.6609V16.25C21.8625 15.8979 22.1479 15.6125 22.5 15.6125ZM19.1 24.1125C18.7479 24.1125 18.4625 24.3979 18.4625 24.75C18.4625 25.1021 18.7479 25.3875 19.1 25.3875H25.9C26.2521 25.3875 26.5375 25.1021 26.5375 24.75C26.5375 24.3979 26.2521 24.1125 25.9 24.1125H19.1Z" fill="#3982A7"/>
</svg>
