<svg width="9" height="5" viewBox="0 0 9 5" fill="none" xmlns="http://www.w3.org/2000/svg">
<path d="M8.07194 0.221924H0.424938C0.341033 0.222129 0.259065 0.247165 0.189365 0.293879C0.119665 0.340592 0.0653513 0.406892 0.0332697 0.484423C0.00118802 0.561953 -0.00722662 0.647246 0.00908641 0.729551C0.0253994 0.811856 0.0657102 0.887491 0.124938 0.946924L3.94794 4.76992C4.0276 4.84931 4.13548 4.89388 4.24794 4.89388C4.3604 4.89388 4.46828 4.84931 4.54794 4.76992L8.37094 0.946924C8.43017 0.887491 8.47048 0.811856 8.48679 0.729551C8.5031 0.647246 8.49469 0.561953 8.46261 0.484423C8.43052 0.406892 8.37621 0.340592 8.30651 0.293879C8.23681 0.247165 8.15584 0.222129 8.07194 0.221924Z" fill="#051a53"/>
</svg>
