<svg width="35" height="35" viewBox="0 0 35 35" fill="none" xmlns="http://www.w3.org/2000/svg">
<circle cx="17.5" cy="17.5" r="17.5" fill="#D8E1ED" fill-opacity="0.37"/>
<path d="M14.2051 15.9384H15.7366V11.4185C15.7366 10.9565 16.107 10.5815 16.5633 10.5815H18.4371C18.8934 10.5815 19.2637 10.9565 19.2637 11.4185V15.9384H20.7953C21.5316 15.9384 21.9008 16.8401 21.38 17.3674L18.0849 20.7037C17.7619 21.0307 17.2384 21.0307 16.916 20.7037L13.6209 17.3674C13.1001 16.8401 13.4688 15.9384 14.2056 15.9384H14.2051ZM22.7909 24.0294C22.7909 24.4914 22.4205 24.8664 21.9642 24.8664H13.0361C12.5798 24.8664 12.2095 24.4914 12.2095 24.0294V23.025C12.2095 22.563 12.5798 22.188 13.0361 22.188H21.9642C22.4205 22.188 22.7909 22.563 22.7909 23.025V24.0294Z" fill="#0096DF"/>
</svg>
