<svg width="29" height="29" viewBox="0 0 29 29" fill="none" xmlns="http://www.w3.org/2000/svg">
<path fill-rule="evenodd" clip-rule="evenodd" d="M19.1295 15.0928L15.7128 18.5086V7.57255C15.7147 7.41209 15.6848 7.25283 15.6248 7.10401C15.5647 6.95519 15.4757 6.81978 15.363 6.70561C15.2502 6.59145 15.1159 6.5008 14.9678 6.43894C14.8197 6.37707 14.6608 6.34522 14.5004 6.34522C14.3399 6.34522 14.181 6.37707 14.0329 6.43894C13.8849 6.5008 13.7506 6.59145 13.6378 6.70561C13.525 6.81978 13.436 6.95519 13.376 7.10401C13.3159 7.25283 13.286 7.41209 13.288 7.57255V18.5086L9.87218 15.0928C9.64506 14.8655 9.33694 14.7377 9.01559 14.7375C8.69424 14.7374 8.38599 14.8649 8.15865 15.092C7.93132 15.3191 7.80352 15.6272 7.80337 15.9486C7.80321 16.2699 7.93072 16.5782 8.15784 16.8055L13.6433 22.2917C13.8708 22.5187 14.179 22.6463 14.5005 22.6463C14.8219 22.6463 15.1301 22.5187 15.3576 22.2917L20.842 16.8055C21.0661 16.5778 21.1911 16.2707 21.1899 15.9512C21.1886 15.6317 21.0611 15.3257 20.8352 15.0997C20.6093 14.8738 20.3033 14.7463 19.9838 14.745C19.6643 14.7437 19.3572 14.8687 19.1295 15.0928ZM24.7509 24.7552C27.1236 22.3835 28.6005 19.2624 28.9299 15.9238C29.2593 12.5852 28.4209 9.23571 26.5575 6.44602C24.6941 3.65633 21.921 1.59909 18.7108 0.624866C15.5005 -0.34936 12.0518 -0.180293 8.95228 1.10326C5.85274 2.38681 3.29417 4.70542 1.71256 7.664C0.13095 10.6226 -0.375839 14.038 0.278555 17.3284C0.932949 20.6188 2.70804 23.5804 5.30133 25.7087C7.89463 27.8369 11.1457 29.0001 14.5005 29C16.4044 29.0023 18.29 28.6285 20.0491 27.9001C21.8082 27.1716 23.406 26.1029 24.7509 24.7552Z" fill="#0096DF"/>
</svg>
