<svg width="20" height="20" viewBox="0 0 20 20" fill="none" xmlns="http://www.w3.org/2000/svg">
<path d="M0.221829 19.781C0.145701 19.7067 0.0895268 19.6145 0.058255 19.5128C0.0269832 19.4111 0.0219016 19.3032 0.0431183 19.199L0.955716 14.637C0.981773 14.5124 1.04272 14.3977 1.13101 14.306L11.341 4.099L15.903 8.659L5.69302 18.869C5.60273 18.9587 5.48782 19.0196 5.36294 19.044L0.802884 19.957C0.761217 19.9664 0.71863 19.9707 0.675931 19.97C0.591499 19.9702 0.507784 19.9536 0.429837 19.9212C0.35189 19.8887 0.28117 19.8411 0.221829 19.781ZM12.7091 2.73L14.4948 0.942C15.0999 0.338796 15.9197 7.62939e-05 16.7741 7.62939e-05C17.6285 7.62939e-05 18.4478 0.338796 19.0529 0.942C19.354 1.24051 19.5929 1.59588 19.7555 1.98746C19.9181 2.37903 20.0013 2.79902 20.0001 3.223C20.0013 3.64698 19.9181 4.06696 19.7555 4.45854C19.5929 4.85012 19.354 5.20549 19.0529 5.504L17.2721 7.289L12.7091 2.73Z" fill="#303845"/>
</svg>
