<svg width="11" height="11" viewBox="0 0 11 11" fill="none" xmlns="http://www.w3.org/2000/svg">
<path d="M5.4486 2.21732L8.78326 5.55198L4.20967 10.1314C3.99708 10.3437 3.72414 10.4852 3.42811 10.5366L0.683962 10.994C0.651389 10.9988 0.618456 11.0007 0.585544 10.9998C0.431048 10.998 0.283419 10.9357 0.1745 10.8261C0.108591 10.7602 0.0590626 10.6798 0.029902 10.5913C0.000741363 10.5028 -0.00723716 10.4088 0.0066088 10.3166L0.463967 7.57247C0.515224 7.27651 0.656543 7.00358 0.868643 6.7909L5.4486 2.21732ZM10.3053 0.694722C10.087 0.474591 9.82725 0.299865 9.54108 0.180628C9.25491 0.0613899 8.94796 0 8.63795 0C8.32793 0 8.02098 0.0613899 7.73481 0.180628C7.44864 0.299865 7.18891 0.474591 6.97061 0.694722L6.2701 1.39523L9.60477 4.7299L10.3053 4.02939C10.5254 3.81109 10.7001 3.55136 10.8194 3.26519C10.9386 2.97902 11 2.67207 11 2.36205C11 2.05204 10.9386 1.74509 10.8194 1.45892C10.7001 1.17274 10.5254 0.913018 10.3053 0.694722Z" fill="white"/>
</svg>
