<svg width="15" height="14" viewBox="0 0 15 14" fill="none" xmlns="http://www.w3.org/2000/svg">
<path d="M13.861 1.47363H8.8418V3.19916H10.5023V4.37361H8.8418V5.52146H10.4853V6.67798H8.8418V7.8345H10.4853V8.99102H8.8418V10.1475H10.4853V11.3041H8.8418V13.0388H13.861C14.1135 13.0388 14.3201 12.8127 14.3201 12.5358V1.97672C14.3201 1.69973 14.1135 1.47363 13.861 1.47363ZM13.2244 11.3041H11.0331V10.1475H13.2244V11.3041ZM13.2244 8.99102H11.0331V7.8345H13.2244V8.99102ZM13.2244 6.67798H11.0331V5.52146H13.2244V6.67798ZM13.2244 4.36494H11.0331V3.20842H13.2244V4.36494Z" fill="white"/>
<path d="M0 1.55562V12.4449L7.91304 14V0L0 1.55562ZM5.00526 9.73538L4.08471 7.959C4.0499 7.89277 4.01402 7.77108 3.97657 7.59392H3.96232C3.94492 7.67738 3.90377 7.80446 3.83888 7.97462L2.91517 9.73538H1.48079L3.18368 7.00862L1.62587 4.28131H3.09031L3.85418 5.91662C3.91379 6.04585 3.96707 6.19931 4.01455 6.37646H4.02932C4.05939 6.26985 4.11531 6.11154 4.19708 5.901L5.04641 4.28077H6.38741L4.78528 6.98492L6.43225 9.73485L5.00526 9.73538Z" fill="white"/>
</svg>
