<svg width="43" height="43" viewBox="0 0 43 43" fill="none" xmlns="http://www.w3.org/2000/svg">
<circle cx="21.5" cy="21.5" r="21.5" fill="#D8E1ED" fill-opacity="0.37"/>
<path d="M17.6448 21.2198L13.4203 16.8445C11.7571 18.7223 11.1269 20.6034 11.116 20.6419L11 21L11.1149 21.3581C11.139 21.434 13.6489 28.9324 22.0005 28.9324C23.017 28.9324 23.9427 28.8168 24.7928 28.6231L21.7883 25.5113C20.7065 25.4564 19.6831 24.9866 18.9172 24.1934C18.1514 23.4002 17.6978 22.3403 17.6448 21.2198ZM22.0005 13.0676C19.9709 13.0676 18.3078 13.5254 16.9215 14.1985L12.8677 10L11.3206 11.6023L31.0152 32L32.5623 30.3976L28.9538 26.6603C31.8402 24.4472 32.8698 21.4057 32.8851 21.3581L33 21L32.8851 20.6419C32.861 20.566 30.3522 13.0676 22.0005 13.0676ZM24.086 21.6187C24.2906 20.8515 24.1166 19.988 23.5477 19.3977C22.9787 18.8073 22.1439 18.6282 21.4031 18.8401L19.7532 17.1312C20.4293 16.7006 21.2068 16.4709 22.0005 16.4672C24.4142 16.4672 26.3771 18.5002 26.3771 21C26.3739 21.8219 26.1516 22.627 25.7349 23.3265L24.086 21.6187Z" fill="#3982A7"/>
</svg>
