<svg width="43" height="43" viewBox="0 0 43 43" fill="none" xmlns="http://www.w3.org/2000/svg">
<circle cx="21.5" cy="21.5" r="21.5" fill="#D8E1ED" fill-opacity="0.37"/>
<path fill-rule="evenodd" clip-rule="evenodd" d="M32 22C32 21.5814 31.7676 21.3065 31.3029 20.7567C29.6028 18.7452 25.8527 15 21.5 15C17.1472 15 13.3972 18.7452 11.6971 20.7567C11.2324 21.3065 11 21.5814 11 22C11 22.4186 11.2324 22.6935 11.6971 23.2433C13.3972 25.2549 17.1472 29 21.5 29C25.8527 29 29.6028 25.2549 31.3029 23.2433C31.7676 22.6935 32 22.4186 32 22ZM21.5 25.5C23.4837 25.5 25.0917 23.9331 25.0917 22C25.0917 20.0669 23.4837 18.5 21.5 18.5C19.5164 18.5 17.9083 20.0669 17.9083 22C17.9083 23.9331 19.5164 25.5 21.5 25.5Z" fill="#3982A7"/>
</svg>
