<svg width="47" height="47" viewBox="0 0 47 47" fill="none" xmlns="http://www.w3.org/2000/svg">
<circle cx="23.5" cy="23.5" r="23.5" fill="#E6EEF8"/>
<g clip-path="url(#clip0_310_2119)">
<path d="M32 28V30.5C32 31.4283 31.6313 32.3185 30.9749 32.9749C30.3185 33.6313 29.4283 34 28.5 34H18.5C17.5717 34 16.6815 33.6313 16.0251 32.9749C15.3687 32.3185 15 31.4283 15 30.5V29.85C15.0013 29.0945 15.302 28.3704 15.8362 27.8362C16.3704 27.302 17.0945 27.0013 17.85 27H31C31.2652 27 31.5196 27.1054 31.7071 27.2929C31.8946 27.4804 32 27.7348 32 28Z" fill="#051a53"/>
<path d="M27 14H20C16 14 15 15 15 19V26.58C15.7863 25.8841 16.8 25.5 17.85 25.5H31C31.2652 25.5 31.5196 25.3946 31.7071 25.2071C31.8946 25.0196 32 24.7652 32 24.5V19C32 15 31 14 27 14ZM24.5 22.75H19.5C19.3011 22.75 19.1103 22.671 18.9697 22.5303C18.829 22.3897 18.75 22.1989 18.75 22C18.75 21.8011 18.829 21.6103 18.9697 21.4697C19.1103 21.329 19.3011 21.25 19.5 21.25H24.5C24.6989 21.25 24.8897 21.329 25.0303 21.4697C25.171 21.6103 25.25 21.8011 25.25 22C25.25 22.1989 25.171 22.3897 25.0303 22.5303C24.8897 22.671 24.6989 22.75 24.5 22.75ZM27.5 19.25H19.5C19.3011 19.25 19.1103 19.171 18.9697 19.0303C18.829 18.8897 18.75 18.6989 18.75 18.5C18.75 18.3011 18.829 18.1103 18.9697 17.9697C19.1103 17.829 19.3011 17.75 19.5 17.75H27.5C27.6989 17.75 27.8897 17.829 28.0303 17.9697C28.171 18.1103 28.25 18.3011 28.25 18.5C28.25 18.6989 28.171 18.8897 28.0303 19.0303C27.8897 19.171 27.6989 19.25 27.5 19.25Z" fill="#051a53"/>
</g>
<defs>
<clipPath id="clip0_310_2119">
<rect width="17" height="20" fill="white" transform="translate(15 14)"/>
</clipPath>
</defs>
</svg>
