<svg width="32" height="32" viewBox="0 0 32 32" fill="none" xmlns="http://www.w3.org/2000/svg">
<g clip-path="url(#clip0_526_2095)">
<rect width="32" height="32" fill="#0096DF"/>
<g filter="url(#filter0_d_526_2095)">
<path d="M14.4375 1.43316C16.446 0.558504 18.0495 1.01203 19.3291 2.76133C20.6411 4.54303 21.1756 6.63248 21.5319 8.77052C22.034 11.7508 22.0826 14.7635 21.8559 17.7924C21.8235 18.3269 20.6735 18.8614 20.2523 18.5213C20.0094 18.3269 20.1713 18.0192 20.1875 17.76C20.3819 14.148 20.3657 10.5522 19.4425 7.00502C19.2643 6.32473 19.0375 5.66065 18.7622 5.02895C17.9361 3.13387 16.6565 1.7409 14.4375 1.43316Z" fill="white"/>
<path d="M30.6344 14.5361C31.3633 15.7185 31.0879 17.5326 30.0351 18.5693C28.7555 19.8488 27.1358 20.5129 25.4351 20.9665C21.7259 21.9869 17.9357 22.0031 14.1294 21.7277C13.2061 21.6629 13.5463 20.8855 13.4815 20.4157C13.4005 19.7841 13.9512 20.0594 14.2265 20.0756C17.6442 20.27 21.0618 20.27 24.4308 19.5249C25.678 19.2495 26.8604 18.8122 27.9456 18.1643C29.1604 17.4516 30.0189 16.4636 30.3752 15.0706C30.4238 14.8925 30.4886 14.7143 30.5534 14.5523C30.5696 14.5361 30.6182 14.5361 30.6344 14.5361Z" fill="white"/>
<path d="M18.1951 30.5398C15.9761 31.4468 14.2753 31.0095 13.012 29.2602C11.6514 27.3813 11.1007 25.1785 10.7281 22.9271C10.2584 20.0926 10.2908 17.2418 10.4366 14.3749C10.469 13.6946 11.3274 13.1601 11.9753 13.3869C12.3479 13.5327 12.1535 13.8566 12.1373 14.0834C11.9591 16.4482 11.9591 18.8292 12.1859 21.194C12.3641 23.0243 12.6556 24.8222 13.3683 26.5391C14.243 28.6609 15.5549 30.2806 18.1951 30.5398Z" fill="white"/>
<path d="M1.46339 17.8409C0.685924 16.2859 0.912686 14.6824 1.94931 13.5972C3.29369 12.188 5.04299 11.5725 6.85709 11.1028C9.82119 10.3253 12.8663 10.1795 15.9114 10.2605C16.5593 10.2767 17.2071 10.3253 17.855 10.3253C18.2924 10.3253 18.4867 10.5035 18.5029 10.9408C18.6001 12.269 18.8269 12.0908 17.5311 12.0098C14.2916 11.8155 11.0684 11.8641 7.87752 12.5281C7.00286 12.7063 6.14441 12.9493 5.33454 13.3056C3.34228 14.1479 1.80354 15.3951 1.46339 17.8409Z" fill="white"/>
<path d="M26.537 21.9714C26.0511 22.6517 25.5976 23.089 24.9011 23.2672C21.5321 24.1581 18.1306 24.5144 14.6644 24.2228C13.9517 24.1581 14.0327 23.6236 14.0003 23.2348C13.9517 22.7327 14.4215 22.9595 14.6482 22.9757C18.487 23.251 22.2771 22.9919 26.0187 21.9714C26.1159 21.939 26.2617 21.9714 26.537 21.9714Z" fill="white"/>
<path d="M18.1629 9.17608C13.822 8.88453 9.5945 8.98171 5.448 10.3261C5.85293 9.53242 6.38744 9.07889 7.05153 8.88453C10.4044 7.92889 13.822 7.68593 17.2882 7.8641C18.1953 7.91269 17.9037 8.62537 18.1629 9.17608Z" fill="white"/>
<path d="M21.9207 5.53125C22.6171 5.90379 23.1516 6.34111 23.3784 7.13478C24.2693 10.4228 24.5932 13.7595 24.3502 17.1447C24.334 17.4039 24.4474 17.7278 24.1073 17.8412C23.8157 17.9384 23.4756 18.1651 23.184 18.0032C22.9411 17.8574 23.1031 17.501 23.1193 17.2419C23.3784 13.6461 23.1678 10.0827 22.2608 6.56788C22.1474 6.22773 22.034 5.88759 21.9207 5.53125Z" fill="white"/>
<path d="M10.4855 26.7333C9.64321 26.0369 9.1249 25.4538 8.88194 24.5467C8.03968 21.3234 7.82912 18.0678 7.99109 14.7635C8.02349 14.2452 8.60659 13.7917 9.09251 13.9213C9.44885 14.0185 9.25448 14.3262 9.25448 14.5206C9.1411 16.3995 9.1087 18.2946 9.25448 20.1734C9.40025 22.3439 9.77279 24.4495 10.4855 26.7333Z" fill="white"/>
<path d="M7.50521 23.7853C6.71155 23.1213 6.12844 22.5706 6.03126 21.5663C5.83689 19.6388 5.72351 17.7114 5.67492 15.7677C5.65872 14.9902 6.19323 14.893 6.66295 14.7311C7.03549 14.6015 6.88972 14.9902 6.90591 15.1522C6.93831 16.3346 6.9545 17.517 6.9869 18.6994C7.0031 20.3515 7.22986 22.0036 7.50521 23.7853Z" fill="white"/>
<path d="M24.8037 8.15479C25.6784 8.86747 26.2291 9.49916 26.3263 10.5682C26.5044 12.4471 26.6178 14.3098 26.6502 16.2048C26.6502 16.4316 26.7474 16.7231 26.5206 16.8851C26.2453 17.0795 25.9213 17.3548 25.5812 17.2415C25.2896 17.1443 25.4678 16.7717 25.4678 16.5126C25.4516 13.759 25.322 11.0379 24.8037 8.15479Z" fill="white"/>
<path d="M8.26611 7.39403C8.88161 6.53558 9.49711 6.01727 10.5337 5.92008C12.445 5.74191 14.3563 5.62853 16.2676 5.57994C17.045 5.56374 17.1098 6.11445 17.3204 6.56797C17.4338 6.81093 17.207 6.81093 17.045 6.81093C14.1295 6.69755 11.2464 6.92431 8.26611 7.39403Z" fill="white"/>
<path d="M14.7129 25.3075C17.5312 25.4209 20.2686 25.2265 22.9897 24.854C23.1517 24.8378 23.3946 24.7244 23.4756 24.9674C23.5404 25.1455 23.3298 25.2265 23.2489 25.3561C22.6172 26.2793 21.5967 26.1659 20.6897 26.2793C19.1995 26.4737 17.677 26.4575 16.1706 26.5385C15.2636 26.5871 14.8263 26.2793 14.7129 25.3075Z" fill="white"/>
<path d="M27.8162 16.0435C27.7676 14.3104 27.7838 12.6745 27.5247 11.0386C29.2578 11.6703 29.355 15.0555 27.8162 16.0435Z" fill="white"/>
<path d="M16.0247 27.7375C17.7416 27.6565 19.3451 27.6403 20.981 27.4136C20.3007 29.0495 17.0775 29.3249 16.0247 27.7375Z" fill="white"/>
<path d="M16.0086 4.39715C14.3241 4.47813 12.6558 4.39715 11.0037 4.73729C11.9917 2.98798 14.8586 2.77742 16.0086 4.39715Z" fill="white"/>
<path d="M4.44349 15.979C4.49208 16.0924 4.54068 16.1248 4.54068 16.1734C4.52448 17.7445 4.62166 19.3156 4.78364 20.9192C3.09912 19.9311 2.92095 17.372 4.44349 15.979Z" fill="white"/>
</g>
</g>
<defs>
<filter id="filter0_d_526_2095" x="1" y="1" width="41.0427" height="38" filterUnits="userSpaceOnUse" color-interpolation-filters="sRGB">
<feFlood flood-opacity="0" result="BackgroundImageFix"/>
<feColorMatrix in="SourceAlpha" type="matrix" values="0 0 0 0 0 0 0 0 0 0 0 0 0 0 0 0 0 0 127 0" result="hardAlpha"/>
<feOffset dx="7" dy="4"/>
<feGaussianBlur stdDeviation="2"/>
<feComposite in2="hardAlpha" operator="out"/>
<feColorMatrix type="matrix" values="0 0 0 0 0 0 0 0 0 0 0 0 0 0 0 0 0 0 0.07 0"/>
<feBlend mode="normal" in2="BackgroundImageFix" result="effect1_dropShadow_526_2095"/>
<feBlend mode="normal" in="SourceGraphic" in2="effect1_dropShadow_526_2095" result="shape"/>
</filter>
<clipPath id="clip0_526_2095">
<rect width="32" height="32" fill="white"/>
</clipPath>
</defs>
</svg>
