<svg width="109" height="111" viewBox="0 0 109 111" fill="none" xmlns="http://www.w3.org/2000/svg">
<g opacity="0.05">
<path d="M99.4408 32.1538L56.8822 56.8046C56.0232 57.2936 55.0517 57.5506 54.0633 57.5506C53.0749 57.5506 52.1035 57.2936 51.2445 56.8046L8.68588 32.1538C7.96811 31.7458 7.34935 31.1842 6.87385 30.5092C6.39835 29.8343 6.07786 29.0626 5.93528 28.2493C5.7927 27.4361 5.83156 26.6014 6.04908 25.8049C6.2666 25.0085 6.65741 24.2699 7.19356 23.642C8.71118 21.8839 10.5258 20.4059 12.5548 19.2756L42.5117 2.69435C46.1242 0.921684 50.0947 0 54.1186 0C58.1426 0 62.1131 0.921684 65.7255 2.69435L95.6824 19.2756C97.6992 20.4237 99.5111 21.8993 101.044 23.642C101.558 24.2839 101.928 25.0295 102.128 25.8277C102.327 26.626 102.352 27.4579 102.2 28.2665C102.047 29.0751 101.722 29.8411 101.246 30.5121C100.77 31.1831 100.154 31.7431 99.4408 32.1538Z" fill="#0096DF"/>
<path d="M50.8503 67.0859V104.781C50.8686 105.735 50.642 106.679 50.192 107.521C49.7421 108.363 49.0839 109.076 48.2802 109.591C47.4765 110.107 46.5541 110.408 45.601 110.465C44.648 110.523 43.696 110.336 42.836 109.921C31.4502 104.339 12.2712 93.8923 12.2712 93.8923C8.68996 91.5607 5.71134 88.4147 3.57877 84.7115C1.4462 81.0084 0.220206 76.8531 0.000998001 72.5854V44.0379C-0.017636 43.0515 0.224965 42.0777 0.704188 41.2153C1.18341 40.353 1.88221 39.6327 2.72968 39.1276C3.57715 38.6225 4.54315 38.3505 5.52968 38.3392C6.5162 38.328 7.48815 38.5779 8.34691 39.0635L48.0867 62.1115C48.9264 62.6437 49.6193 63.3778 50.1021 64.2467C50.5848 65.1157 50.8421 66.0919 50.8503 67.0859Z" fill="#0096DF"/>
<path d="M57.2994 67.0859V104.781C57.2811 105.735 57.5077 106.679 57.9576 107.521C58.4075 108.363 59.0658 109.076 59.8695 109.591C60.6732 110.107 61.5956 110.408 62.5486 110.465C63.5017 110.523 64.4536 110.336 65.3137 109.921C76.6995 104.339 95.8785 93.8923 95.8785 93.8923C99.4597 91.5607 102.438 88.4147 104.571 84.7115C106.703 81.0084 107.929 76.8531 108.149 72.5854V44.0379C108.167 43.0515 107.925 42.0777 107.445 41.2153C106.966 40.353 106.267 39.6327 105.42 39.1276C104.572 38.6225 103.606 38.3505 102.62 38.3392C101.633 38.328 100.661 38.5779 99.8027 39.0635L60.0629 62.1115C59.2232 62.6437 58.5303 63.3778 58.0476 64.2467C57.5648 65.1157 57.3076 66.0919 57.2994 67.0859Z" fill="#0096DF"/>
</g>
</svg>
