<svg width="47" height="47" viewBox="0 0 47 47" fill="none" xmlns="http://www.w3.org/2000/svg">
<circle cx="23.5" cy="23.5" r="23.5" fill="#D7EAF3"/>
<g clip-path="url(#clip0_310_2096)">
<path d="M31.9803 19.818L24.2803 24.278C24.1248 24.3664 23.9491 24.4129 23.7703 24.4129C23.5914 24.4129 23.4157 24.3664 23.2603 24.278L15.5603 19.818C15.4304 19.7441 15.3184 19.6425 15.2324 19.5204C15.1464 19.3983 15.0884 19.2587 15.0626 19.1116C15.0368 18.9644 15.0438 18.8134 15.0832 18.6693C15.1225 18.5252 15.1933 18.3916 15.2903 18.278C15.5648 17.9599 15.8932 17.6925 16.2603 17.488L21.6803 14.488C22.3338 14.1672 23.0522 14.0005 23.7803 14.0005C24.5083 14.0005 25.2267 14.1672 25.8803 14.488L31.3003 17.488C31.6652 17.6957 31.993 17.9627 32.2703 18.278C32.3634 18.3941 32.4303 18.529 32.4664 18.6734C32.5025 18.8178 32.5069 18.9684 32.4794 19.1147C32.4518 19.261 32.393 19.3996 32.3068 19.521C32.2207 19.6424 32.1093 19.7437 31.9803 19.818Z" fill="#0096DF"/>
<path d="M23.2002 26.1379V32.9579C23.2035 33.1306 23.1625 33.3013 23.0811 33.4537C22.9997 33.606 22.8806 33.735 22.7352 33.8283C22.5898 33.9215 22.4229 33.976 22.2504 33.9864C22.078 33.9968 21.9058 33.9629 21.7502 33.8879C19.6902 32.8779 16.2202 30.9879 16.2202 30.9879C15.5722 30.566 15.0333 29.9968 14.6475 29.3268C14.2617 28.6568 14.0398 27.905 14.0002 27.1329V21.9679C13.9968 21.7894 14.0407 21.6132 14.1274 21.4572C14.2141 21.3012 14.3405 21.1709 14.4939 21.0795C14.6472 20.9881 14.822 20.9389 15.0005 20.9368C15.179 20.9348 15.3548 20.98 15.5102 21.0679L22.7002 25.2379C22.8521 25.3342 22.9775 25.467 23.0648 25.6242C23.1522 25.7814 23.1987 25.958 23.2002 26.1379Z" fill="#0096DF"/>
<path d="M24.34 26.1379V32.9579C24.3367 33.1306 24.3777 33.3013 24.4591 33.4537C24.5405 33.606 24.6596 33.735 24.805 33.8283C24.9504 33.9215 25.1173 33.976 25.2898 33.9864C25.4622 33.9968 25.6344 33.9629 25.79 33.8879C27.85 32.8779 31.32 30.9879 31.32 30.9879C31.968 30.566 32.5069 29.9968 32.8927 29.3268C33.2786 28.6568 33.5004 27.905 33.54 27.1329V21.9679C33.5434 21.7894 33.4995 21.6132 33.4128 21.4572C33.3261 21.3012 33.1997 21.1709 33.0463 21.0795C32.893 20.9881 32.7182 20.9389 32.5397 20.9368C32.3613 20.9348 32.1854 20.98 32.03 21.0679L24.84 25.2379C24.6881 25.3342 24.5627 25.467 24.4754 25.6242C24.3881 25.7814 24.3415 25.958 24.34 26.1379Z" fill="#0096DF"/>
</g>
<defs>
<clipPath id="clip0_310_2096">
<rect width="19.54" height="19.991" fill="white" transform="translate(14 14)"/>
</clipPath>
</defs>
</svg>
