<svg width="47" height="47" viewBox="0 0 47 47" fill="none" xmlns="http://www.w3.org/2000/svg">
<circle cx="23.5" cy="23.5" r="23.5" fill="#EEECEE"/>
<g clip-path="url(#clip0_488_6899)">
<path d="M31.9798 19.818L24.2798 24.278C24.1243 24.3664 23.9486 24.4129 23.7698 24.4129C23.5909 24.4129 23.4152 24.3664 23.2598 24.278L15.5598 19.818C15.4299 19.7441 15.318 19.6425 15.2319 19.5204C15.1459 19.3983 15.0879 19.2587 15.0621 19.1116C15.0363 18.9644 15.0433 18.8134 15.0827 18.6693C15.1221 18.5252 15.1928 18.3916 15.2898 18.278C15.5643 17.9599 15.8927 17.6925 16.2598 17.488L21.6798 14.488C22.3334 14.1672 23.0517 14.0005 23.7798 14.0005C24.5078 14.0005 25.2262 14.1672 25.8798 14.488L31.2998 17.488C31.6647 17.6957 31.9925 17.9627 32.2698 18.278C32.3629 18.3941 32.4298 18.529 32.4659 18.6734C32.502 18.8178 32.5065 18.9684 32.4789 19.1147C32.4514 19.261 32.3925 19.3996 32.3063 19.521C32.2202 19.6424 32.1088 19.7437 31.9798 19.818Z" fill="#0096DF"/>
<path d="M23.2002 26.1381V32.9581C23.2035 33.1308 23.1625 33.3015 23.0811 33.4539C22.9997 33.6063 22.8806 33.7352 22.7352 33.8285C22.5898 33.9218 22.4229 33.9762 22.2504 33.9867C22.078 33.9971 21.9058 33.9632 21.7502 33.8881C19.6902 32.8781 16.2202 30.9881 16.2202 30.9881C15.5722 30.5663 15.0333 29.9971 14.6475 29.3271C14.2617 28.6571 14.0398 27.9053 14.0002 27.1331V21.9681C13.9968 21.7897 14.0407 21.6135 14.1274 21.4574C14.2141 21.3014 14.3405 21.1711 14.4939 21.0797C14.6472 20.9883 14.822 20.9391 15.0005 20.9371C15.179 20.935 15.3548 20.9803 15.5102 21.0681L22.7002 25.2381C22.8521 25.3344 22.9775 25.4672 23.0648 25.6244C23.1522 25.7817 23.1987 25.9583 23.2002 26.1381Z" fill="#0096DF"/>
<path d="M24.34 26.1381V32.9581C24.3367 33.1308 24.3777 33.3015 24.4591 33.4539C24.5405 33.6063 24.6596 33.7352 24.805 33.8285C24.9504 33.9218 25.1173 33.9762 25.2898 33.9867C25.4622 33.9971 25.6344 33.9632 25.79 33.8881C27.85 32.8781 31.32 30.9881 31.32 30.9881C31.968 30.5663 32.5069 29.9971 32.8927 29.3271C33.2786 28.6571 33.5004 27.9053 33.54 27.1331V21.9681C33.5434 21.7897 33.4995 21.6135 33.4128 21.4574C33.3261 21.3014 33.1997 21.1711 33.0463 21.0797C32.893 20.9883 32.7182 20.9391 32.5397 20.9371C32.3613 20.935 32.1854 20.9803 32.03 21.0681L24.84 25.2381C24.6881 25.3344 24.5627 25.4672 24.4754 25.6244C24.3881 25.7817 24.3415 25.9583 24.34 26.1381Z" fill="#0096DF"/>
</g>
<defs>
<clipPath id="clip0_488_6899">
<rect width="19.54" height="19.991" fill="white" transform="translate(14 14)"/>
</clipPath>
</defs>
</svg>
