<svg width="30" height="30" viewBox="0 0 30 30" fill="none" xmlns="http://www.w3.org/2000/svg">
<path d="M26.7059 8.64064L15.2692 15.265C15.0383 15.3964 14.7773 15.4655 14.5117 15.4655C14.2461 15.4655 13.985 15.3964 13.7542 15.265L2.31746 8.64064C2.12457 8.531 1.95829 8.38009 1.83051 8.1987C1.70273 8.01732 1.61661 7.80995 1.57829 7.59141C1.53998 7.37287 1.55042 7.14856 1.60887 6.93453C1.66733 6.7205 1.77235 6.52202 1.91643 6.3533C2.32426 5.88082 2.81191 5.48366 3.35716 5.17992L11.4074 0.724049C12.3782 0.247683 13.4452 0 14.5265 0C15.6079 0 16.6749 0.247683 17.6456 0.724049L25.6959 5.17992C26.2379 5.48845 26.7248 5.88498 27.1367 6.3533C27.275 6.52578 27.3744 6.72615 27.428 6.94066C27.4816 7.15516 27.4882 7.37873 27.4473 7.59602C27.4064 7.81331 27.3189 8.01917 27.1909 8.19949C27.063 8.3798 26.8975 8.53029 26.7059 8.64064Z" fill="#051a53"/>
<path d="M13.6649 18.0277V28.1573C13.6698 28.4139 13.6089 28.6674 13.488 28.8937C13.3671 29.12 13.1903 29.3116 12.9743 29.4501C12.7583 29.5886 12.5104 29.6695 12.2543 29.685C11.9982 29.7005 11.7424 29.6501 11.5113 29.5386C8.45157 28.0385 3.29761 25.2313 3.29761 25.2313C2.33524 24.6047 1.5348 23.7593 0.961719 22.7642C0.388636 21.769 0.0591756 20.6524 0.000268192 19.5055V11.834C-0.0047393 11.5689 0.0604545 11.3072 0.189236 11.0755C0.318017 10.8437 0.505803 10.6502 0.733544 10.5144C0.961284 10.3787 1.22088 10.3056 1.48598 10.3026C1.75109 10.2996 2.01228 10.3667 2.24306 10.4972L12.9223 16.6909C13.1479 16.8339 13.3341 17.0312 13.4639 17.2647C13.5936 17.4982 13.6627 17.7605 13.6649 18.0277Z" fill="#051a53"/>
<path d="M15.3582 18.0277V28.1573C15.3533 28.4139 15.4142 28.6674 15.5351 28.8937C15.656 29.12 15.8329 29.3116 16.0488 29.4501C16.2648 29.5886 16.5127 29.6695 16.7688 29.685C17.0249 29.7005 17.2807 29.6501 17.5119 29.5386C20.5716 28.0385 25.7255 25.2313 25.7255 25.2313C26.6879 24.6047 27.4883 23.7593 28.0614 22.7642C28.6345 21.769 28.9639 20.6524 29.0229 19.5055V11.834C29.0279 11.5689 28.9627 11.3072 28.8339 11.0755C28.7051 10.8437 28.5173 10.6502 28.2896 10.5144C28.0618 10.3787 27.8022 10.3056 27.5371 10.3026C27.272 10.2996 27.0108 10.3667 26.7801 10.4972L16.1008 16.6909C15.8752 16.8339 15.689 17.0312 15.5592 17.2647C15.4295 17.4982 15.3604 17.7605 15.3582 18.0277Z" fill="#051a53"/>
</svg>
