<svg width="47" height="47" viewBox="0 0 47 47" fill="none" xmlns="http://www.w3.org/2000/svg">
<circle cx="23.5" cy="23.5" r="23.5" fill="#D7EAF3"/>
<g clip-path="url(#clip0_310_2128)">
<path d="M34 19.8101V28.1901C34.0003 28.9531 33.8502 29.7087 33.5583 30.4138C33.2664 31.1188 32.8384 31.7594 32.2989 32.2989C31.7593 32.8385 31.1187 33.2664 30.4137 33.5583C29.7087 33.8502 28.9531 34.0003 28.19 34.0001H19.81C19.0469 34.0003 18.2913 33.8502 17.5863 33.5583C16.8813 33.2664 16.2407 32.8385 15.7011 32.2989C15.1616 31.7594 14.7336 31.1188 14.4417 30.4138C14.1498 29.7087 13.9997 28.9531 14 28.1901V19.8101C14 17.3201 15.02 15.5101 16.83 14.6311C16.9826 14.5604 17.1505 14.5294 17.3182 14.5409C17.4859 14.5524 17.648 14.6059 17.7896 14.6966C17.9311 14.7873 18.0475 14.9123 18.128 15.0598C18.2084 15.2074 18.2504 15.3729 18.25 15.5411V24.4211C18.2113 24.9332 18.3106 25.4463 18.5374 25.9071C18.7643 26.3679 19.1105 26.7594 19.54 27.0411C20.0158 27.2675 20.544 27.361 21.0686 27.3117C21.5932 27.2625 22.0947 27.0722 22.52 26.7611L23.82 25.9811C23.9297 25.9431 24.0483 25.9396 24.16 25.9711L25.48 26.7611C26.0298 27.1154 26.6661 27.3125 27.32 27.3311C27.7263 27.3345 28.1263 27.2311 28.48 27.0311C28.9043 26.7479 29.2455 26.3568 29.4687 25.8982C29.6919 25.4395 29.789 24.9297 29.75 24.4211V15.5401C29.7498 15.372 29.7918 15.2066 29.8724 15.0592C29.9529 14.9117 30.0693 14.7869 30.2109 14.6964C30.3524 14.6058 30.5144 14.5523 30.6821 14.5409C30.8497 14.5295 31.0175 14.5605 31.17 14.6311C32.98 15.5101 34 17.3201 34 19.8101Z" fill="#0096DF"/>
<path d="M27.2499 14C27.5151 14 27.7695 14.1054 27.957 14.2929C28.1445 14.4804 28.2499 14.7348 28.2499 15V24.42C28.2809 24.6645 28.2495 24.9129 28.1586 25.142C28.0676 25.371 27.9202 25.5733 27.7299 25.73C27.4815 25.8167 27.2151 25.8383 26.956 25.7928C26.6969 25.7472 26.4538 25.6361 26.2499 25.47L24.9299 24.68C24.6437 24.5273 24.3243 24.4475 23.9999 24.4475C23.6755 24.4475 23.3561 24.5273 23.0699 24.68L21.7499 25.47C21.5447 25.6339 21.3017 25.7435 21.0431 25.789C20.7845 25.8344 20.5186 25.8141 20.2699 25.73C20.0796 25.5733 19.9321 25.371 19.8412 25.142C19.7503 24.9129 19.7189 24.6645 19.7499 24.42V15C19.7499 14.7348 19.8552 14.4804 20.0428 14.2929C20.2303 14.1054 20.4847 14 20.7499 14H27.2499Z" fill="#0096DF"/>
</g>
<defs>
<clipPath id="clip0_310_2128">
<rect width="20" height="20" fill="white" transform="translate(14 14)"/>
</clipPath>
</defs>
</svg>
