<svg width="13" height="13" viewBox="0 0 13 13" fill="none" xmlns="http://www.w3.org/2000/svg">
<path d="M13 6.5C13 2.91015 10.0804 0 6.47895 0C3.12951 0 0.3698 2.51712 0 5.75714H5.42499L4.46144 4.79671C4.17042 4.5066 4.17042 4.03625 4.46144 3.74615C4.75247 3.45605 5.22437 3.45605 5.5154 3.74615L7.75119 5.97473C8.04223 6.26481 8.04223 6.73519 7.75119 7.02527L5.5154 9.25385C5.22437 9.54393 4.75247 9.54393 4.46144 9.25385C4.17042 8.96376 4.17042 8.49338 4.46144 8.2033L5.42499 7.24286H0C0.3698 10.4829 3.12951 13 6.47895 13C10.0804 13 13 10.0899 13 6.5Z" fill="#62728A"/>
</svg>
