<svg width="144" height="144" viewBox="0 0 144 144" fill="none" xmlns="http://www.w3.org/2000/svg">
<circle cx="72" cy="72" r="72" fill="#FCC9C9" fill-opacity="0.22"/>
<circle cx="72" cy="72" r="51" fill="#F55A5A"/>
<path d="M79.3913 76.3823L81.1946 74.579H65.0574C63.6354 74.579 62.4812 73.4248 62.4812 72.0028C62.4812 70.5807 63.6354 69.4266 65.0574 69.4266H81.1946L79.3913 67.6233C78.3814 66.6134 78.3814 64.9853 79.3913 63.9754C80.4011 62.9656 82.0293 62.9656 83.0392 63.9754L89.2426 70.1789C90.2525 71.1887 90.2525 72.8169 89.2426 73.8267L83.0392 80.0302C82.0293 81.04 80.4011 81.04 79.3913 80.0302C78.3917 79.0203 78.3917 77.3922 79.3913 76.3823ZM76.6399 62.6976V60.1524C76.6399 57.3083 74.3317 55 71.4876 55H60.1524C57.3083 55 55 57.3083 55 60.1524V83.8532C55 86.6973 57.3083 89.0056 60.1524 89.0056H71.4876C74.3317 89.0056 76.6399 86.6973 76.6399 83.8532V81.308C76.6399 79.8859 75.4858 78.7318 74.0637 78.7318C72.6417 78.7318 71.4876 79.8859 71.4876 81.308V82.5651C71.4876 83.2762 70.9105 83.8532 70.1995 83.8532H61.4405C60.7294 83.8532 60.1524 83.2762 60.1524 82.5651V61.4405C60.1524 60.7294 60.7294 60.1524 61.4405 60.1524H70.1995C70.9105 60.1524 71.4876 60.7294 71.4876 61.4405V62.6976C71.4876 64.1197 72.6417 65.2738 74.0637 65.2738C75.4858 65.2738 76.6399 64.1197 76.6399 62.6976Z" fill="white"/>
</svg>
