<svg width="47" height="47" viewBox="0 0 47 47" fill="none" xmlns="http://www.w3.org/2000/svg">
<circle cx="23.5" cy="23.5" r="23.5" fill="#D7EAF3"/>
<g clip-path="url(#clip0_310_2127)">
<path d="M29.0008 14H19.0008C18.3337 13.9598 17.6656 14.0615 17.0407 14.2986C16.4159 14.5356 15.8484 14.9025 15.3758 15.3751C14.9032 15.8477 14.5363 16.4151 14.2993 17.04C14.0623 17.6649 13.9605 18.3329 14.0008 19V25C13.9605 25.6671 14.0623 26.3352 14.2993 26.9601C14.5363 27.5849 14.9032 28.1524 15.3758 28.625C15.8484 29.0976 16.4159 29.4645 17.0407 29.7015C17.6656 29.9385 18.3337 30.0403 19.0008 30H23.0008L27.4508 32.96C27.6012 33.0591 27.7755 33.1157 27.9554 33.1238C28.1353 33.132 28.3141 33.0915 28.4728 33.0064C28.6316 32.9214 28.7645 32.7951 28.8574 32.6409C28.9503 32.4866 28.9998 32.3101 29.0008 32.13V30C29.6679 30.0403 30.3359 29.9385 30.9608 29.7015C31.5857 29.4645 32.1531 29.0976 32.6257 28.625C33.0983 28.1524 33.4652 27.5849 33.7022 26.9601C33.9393 26.3352 34.041 25.6671 34.0008 25V19C34.041 18.3329 33.9393 17.6649 33.7022 17.04C33.4652 16.4151 33.0983 15.8477 32.6257 15.3751C32.1531 14.9025 31.5857 14.5356 30.9608 14.2986C30.3359 14.0615 29.6679 13.9598 29.0008 14ZM27.5008 22.82H20.5008C20.3019 22.82 20.1111 22.741 19.9704 22.6004C19.8298 22.4597 19.7508 22.2689 19.7508 22.07C19.7508 21.8711 19.8298 21.6804 19.9704 21.5397C20.1111 21.3991 20.3019 21.32 20.5008 21.32H27.5008C27.6997 21.32 27.8904 21.3991 28.0311 21.5397C28.1717 21.6804 28.2508 21.8711 28.2508 22.07C28.2508 22.2689 28.1717 22.4597 28.0311 22.6004C27.8904 22.741 27.6997 22.82 27.5008 22.82Z" fill="#051a53"/>
</g>
<defs>
<clipPath id="clip0_310_2127">
<rect width="20" height="19.129" fill="white" transform="translate(14 14)"/>
</clipPath>
</defs>
</svg>
