<svg width="20" height="19" viewBox="0 0 20 19" fill="none" xmlns="http://www.w3.org/2000/svg">
<path d="M14.1391 0.460043L5.10914 3.46004C-0.960859 5.49004 -0.960859 8.80004 5.10914 10.82L7.78914 11.71L8.67914 14.39C10.6991 20.46 14.0191 20.46 16.0391 14.39L19.0491 5.37004C20.3891 1.32004 18.1891 -0.889957 14.1391 0.460043ZM14.4591 5.84004L10.6591 9.66004C10.5091 9.81004 10.3191 9.88004 10.1291 9.88004C9.93914 9.88004 9.74914 9.81004 9.59914 9.66004C9.45966 9.5189 9.38144 9.32847 9.38144 9.13004C9.38144 8.93161 9.45966 8.74118 9.59914 8.60004L13.3991 4.78004C13.6891 4.49004 14.1691 4.49004 14.4591 4.78004C14.7491 5.07004 14.7491 5.55004 14.4591 5.84004Z" fill="#0096DF"/>
</svg>
