<svg width="47" height="47" viewBox="0 0 47 47" fill="none" xmlns="http://www.w3.org/2000/svg">
<circle cx="23.5" cy="23.5" r="23.5" fill="#E6EEF8"/>
<path d="M28.0086 14.0086H18.0086C17.3415 13.9683 16.6734 14.0701 16.0485 14.3071C15.4237 14.5441 14.8562 14.9111 14.3836 15.3836C13.9111 15.8562 13.5441 16.4237 13.3071 17.0485C13.0701 17.6734 12.9683 18.3415 13.0086 19.0086V25.0086C12.9683 25.6757 13.0701 26.3437 13.3071 26.9686C13.5441 27.5935 13.9111 28.161 14.3836 28.6335C14.8562 29.1061 15.4237 29.473 16.0485 29.7101C16.6734 29.9471 17.3415 30.0488 18.0086 30.0086H22.0086L26.4586 32.9686C26.609 33.0676 26.7833 33.1242 26.9632 33.1324C27.1431 33.1406 27.3219 33.1 27.4807 33.015C27.6394 32.93 27.7723 32.8037 27.8652 32.6494C27.9581 32.4952 28.0077 32.3187 28.0086 32.1386V30.0086C28.6757 30.0488 29.3437 29.9471 29.9686 29.7101C30.5935 29.473 31.161 29.1061 31.6335 28.6335C32.1061 28.161 32.473 27.5935 32.7101 26.9686C32.9471 26.3437 33.0488 25.6757 33.0086 25.0086V19.0086C33.0488 18.3415 32.9471 17.6734 32.7101 17.0485C32.473 16.4237 32.1061 15.8562 31.6335 15.3836C31.161 14.9111 30.5935 14.5441 29.9686 14.3071C29.3437 14.0701 28.6757 13.9683 28.0086 14.0086ZM26.5086 22.8286H19.5086C19.3097 22.8286 19.1189 22.7496 18.9782 22.6089C18.8376 22.4683 18.7586 22.2775 18.7586 22.0786C18.7586 21.8797 18.8376 21.6889 18.9782 21.5482C19.1189 21.4076 19.3097 21.3286 19.5086 21.3286H26.5086C26.7075 21.3286 26.8983 21.4076 27.0389 21.5482C27.1796 21.6889 27.2586 21.8797 27.2586 22.0786C27.2586 22.2775 27.1796 22.4683 27.0389 22.6089C26.8983 22.7496 26.7075 22.8286 26.5086 22.8286Z" fill="#051a53"/>
</svg>
