<svg width="512" height="512" viewBox="0 0 512 512" fill="none" xmlns="http://www.w3.org/2000/svg">
<path d="M396.88 458.506C295.614 458.506 226.073 510.962 177.277 510.962C128.481 510.962 26 482.911 26 258.433C26 33.9551 163.867 1 217.538 1C468.866 1 576.222 458.506 396.88 458.506Z" fill="#D1DBFF" fill-opacity="0.27"/>
<path d="M450.789 44.6069L471.493 23.9026L481.846 34.2548L461.141 54.9591L450.789 44.6069Z" fill="#C5C5C5"/>
<path d="M455.943 91.1912L466.295 80.839L486.999 101.543L476.647 111.896L455.943 91.1912Z" fill="#C5C5C5"/>
<path d="M396.427 31.6643L406.779 21.3121L427.483 42.0165L417.131 52.3687L396.427 31.6643Z" fill="#C5C5C5"/>
<path d="M391.42 312.719H193.777L164.497 173.637H420.7L391.42 312.719Z" fill="#F3F3F1"/>
<path d="M336.519 254.158C383.01 254.158 420.7 216.469 420.7 169.977C420.7 123.485 383.01 85.796 336.519 85.796C290.027 85.796 252.337 123.485 252.337 169.977C252.337 216.469 290.027 254.158 336.519 254.158Z" fill="#077FB9" fill-opacity="0.09"/>
<path d="M164.497 173.637L193.777 312.719H226.718L197.438 173.637H164.497Z" fill="#D5DBE1"/>
<path d="M336.519 265.138C284.048 265.138 241.357 222.448 241.357 169.977C241.357 117.507 284.048 74.8159 336.519 74.8159C388.989 74.8159 431.68 117.507 431.68 169.977C431.68 222.448 388.989 265.138 336.519 265.138ZM336.519 96.7762C296.156 96.7762 263.318 129.614 263.318 169.977C263.318 210.34 296.156 243.178 336.519 243.178C376.882 243.178 409.72 210.34 409.72 169.977C409.72 129.614 376.882 96.7762 336.519 96.7762Z" fill="#C5C5C5"/>
<path d="M285.278 158.997H387.759V180.957H285.278V158.997Z" fill="#C5C5C5"/>
<path d="M391.419 323.699H193.776C188.594 323.699 184.099 320.054 183.03 314.974L153.75 175.892C153.077 172.656 153.882 169.289 155.961 166.713C158.054 164.151 161.173 162.657 164.496 162.657H212.077V184.618H178.024L202.678 301.739H382.503L388.769 271.932L410.261 276.455L402.15 314.974C401.096 320.054 396.602 323.699 391.419 323.699Z" fill="#C5C5C5"/>
<path d="M183.031 314.974L146.357 140.741C144.586 132.367 137.09 126.247 128.525 126.218L76.626 126.057L76.6992 104.096L128.613 104.257C147.47 104.331 163.969 117.77 167.849 136.217L204.523 310.45L183.031 314.974Z" fill="#C5C5C5"/>
<path d="M402.399 367.62H171.816C153.648 367.62 138.876 352.848 138.876 334.679C138.876 316.511 153.648 301.739 171.816 301.739H204.757V323.699H171.816C165.755 323.699 160.836 328.618 160.836 334.679C160.836 340.74 165.755 345.66 171.816 345.66H402.399V367.62Z" fill="#C5C5C5"/>
<path d="M234.036 426.18C246.165 426.18 255.997 416.349 255.997 404.22C255.997 392.092 246.165 382.26 234.036 382.26C221.908 382.26 212.076 392.092 212.076 404.22C212.076 416.349 221.908 426.18 234.036 426.18Z" fill="#C5C5C5"/>
<path d="M351.158 426.18C363.286 426.18 373.118 416.349 373.118 404.22C373.118 392.092 363.286 382.26 351.158 382.26C339.03 382.26 329.198 392.092 329.198 404.22C329.198 416.349 339.03 426.18 351.158 426.18Z" fill="#C5C5C5"/>
</svg>
