<svg xmlns="http://www.w3.org/2000/svg" width="125.436" height="101.804" viewBox="0 0 125.436 101.804">
  <g id="Group_57836" data-name="Group 57836" transform="translate(-490.084 -315)">
    <g id="Group_57832" data-name="Group 57832" transform="translate(490.084 315)">
      <path id="Path_10777" data-name="Path 10777" d="M577.625,113.233,575.2,125l-1.564-1.526-2.661,1.9-2.034-2.526-4.56,3.316-3.9-6.517-4.346,2.546-1.724-2.376-5.52,3.11-1.66-3.557L551.1,100.63l20.743,4.283Z" transform="translate(-454.889 -89.23)" fill="rgba(78,167,255,0.21)"/>
      <path id="Path_10793" data-name="Path 10793" d="M640.022,117.5l5.784,8.32-7.2-1.485Z" transform="translate(-523.069 -101.817)" fill="rgba(53,141,235,0.26)"/>
      <path id="Path_10776" data-name="Path 10776" d="M562.762,189.339,559.2,206.6l-27.94-5.768L534.8,183.71l1.66,3.554,5.522-3.11,1.721,2.376,4.349-2.544,3.895,6.517,4.562-3.316,2.031,2.524,2.663-1.9Z" transform="translate(-442.973 -151.218)" fill="rgba(78,167,255,0.21)"/>
      <path id="Path_10756" data-name="Path 10756" d="M407.506,91.828,379.032,93.59,376.77,57.04l21.144-1.31,7.761,6.512Z" transform="translate(-327.706 -55.73)" fill="rgba(78,167,255,0.21)"/>
      <path id="Path_10775" data-name="Path 10775" d="M460.05,55.73l7.761,6.512-7.332.454Z" transform="translate(-389.843 -55.73)" fill="rgba(53,141,235,0.26)"/>
      <path id="Path_10757" data-name="Path 10757" d="M418.2,106.071l-.112-.825a7.318,7.318,0,0,1,1.665-5.619c1.341-1.777,2.067-3.047,1.985-4.489-.091-1.625-1.17-2.651-3.179-2.569a5.664,5.664,0,0,0-3.161,1.168l-.876-1.963A8.313,8.313,0,0,1,419,90.251c3.664-.2,5.446,1.965,5.586,4.385.122,2.166-1,3.793-2.427,5.695a6.3,6.3,0,0,0-1.554,4.781l.079.828Zm-.452,4.5a1.884,1.884,0,0,1,1.8-2.112,1.995,1.995,0,1,1-1.808,2.112Z" transform="translate(-355.872 -81.477)" fill="rgba(53,141,235,0.26)"/>
      <path id="Path_10794" data-name="Path 10794" d="M649.889,291.71l-1.909,1.1.338.584a.508.508,0,0,1-.018.551c-.058.091-.114.185-.165.284a.508.508,0,0,1-.465.289H647v2.206h.675a.508.508,0,0,1,.465.289c.051.1.107.193.165.284a.508.508,0,0,1,.018.551l-.338.584,1.909,1.1.34-.587a.521.521,0,0,1,.485-.254h.325a.523.523,0,0,1,.485.254l.34.589,1.907-1.1-.338-.587a.52.52,0,0,1,.02-.548c.058-.091.114-.188.165-.284a.508.508,0,0,1,.465-.289h.675v-2.206h-.68a.508.508,0,0,1-.465-.289c-.051-.1-.107-.193-.165-.284a.52.52,0,0,1-.02-.548l.338-.586-1.907-1.1-.34.579a.521.521,0,0,1-.485.254h-.325a.528.528,0,0,1-.487-.254Zm.988,2.107a1.8,1.8,0,1,1-1.277.527,1.808,1.808,0,0,1,1.277-.527Z" transform="translate(-529.328 -231.798)" fill="rgba(78,167,255,0.21)"/>
      <ellipse id="Ellipse_771" data-name="Ellipse 771" cx="60.707" cy="7.977" rx="60.707" ry="7.977" transform="translate(0 85.849)" fill="rgba(78,167,255,0.21)"/>
      <path id="Path_10759" data-name="Path 10759" d="M348.994,245.634H271.64L282.824,182.2h77.354Z" transform="translate(-249.268 -150.091)" fill="#198cff"/>
      <path id="Path_10760" data-name="Path 10760" d="M342.165,156.32H316.85l-1.16,6.571h27.092Z" transform="translate(-282.134 -130.782)" fill="#1d8efe"/>
      <g id="Group_57830" data-name="Group 57830" transform="translate(22.372 25.538)" opacity="0.07">
        <path id="Path_10539" data-name="Path 10539" d="M348.994,245.634H271.64L282.824,182.2h77.354Z" transform="translate(-271.64 -175.629)"/>
        <path id="Path_10540" data-name="Path 10540" d="M342.165,156.32H316.85l-1.16,6.571h27.092Z" transform="translate(-304.506 -156.32)"/>
      </g>
      <path id="Path_10761" data-name="Path 10761" d="M309.127,160.389a4.867,4.867,0,0,1,0-2.209,4.867,4.867,0,0,1,0,2.209Z" transform="translate(-277.142 -132.169)" fill="#263238"/>
      <path id="Path_10762" data-name="Path 10762" d="M297.387,163.829a4.315,4.315,0,0,1-.663-.894,4.4,4.4,0,0,1-.444-1.016,4.21,4.21,0,0,1,.663.891A4.472,4.472,0,0,1,297.387,163.829Z" transform="translate(-267.652 -134.96)" fill="#263238"/>
      <path id="Path_10763" data-name="Path 10763" d="M288.622,172.844a4.869,4.869,0,0,1-1.912-1.1,4.356,4.356,0,0,1,1.016.442A4.463,4.463,0,0,1,288.622,172.844Z" transform="translate(-260.512 -142.287)" fill="#263238"/>
      <path id="Path_10764" data-name="Path 10764" d="M285.509,184.677a4.867,4.867,0,0,1-2.209,0A4.867,4.867,0,0,1,285.509,184.677Z" transform="translate(-257.967 -151.844)" fill="#263238"/>
      <path id="Path_10765" data-name="Path 10765" d="M288.989,193.91a4.479,4.479,0,0,1-.894.663,4.359,4.359,0,0,1-1.016.442,4.315,4.315,0,0,1,.894-.663A4.265,4.265,0,0,1,288.989,193.91Z" transform="translate(-260.788 -158.828)" fill="#263238"/>
      <path id="Path_10766" data-name="Path 10766" d="M297.994,200.3a4.856,4.856,0,0,1-1.1,1.914,4.273,4.273,0,0,1,.444-1.016A4.394,4.394,0,0,1,297.994,200.3Z" transform="translate(-268.107 -163.596)" fill="#263238"/>
      <path id="Path_10767" data-name="Path 10767" d="M309.825,202.51a4.429,4.429,0,0,1,.127,1.1,4.316,4.316,0,0,1-.127,1.1,4.206,4.206,0,0,1-.127-1.1A4.426,4.426,0,0,1,309.825,202.51Z" transform="translate(-277.663 -165.245)" fill="#263238"/>
      <path id="Path_10768" data-name="Path 10768" d="M319.06,199.985a4.315,4.315,0,0,1,.663.894,4.265,4.265,0,0,1,.442,1.016,4.857,4.857,0,0,1-1.1-1.914Z" transform="translate(-284.648 -163.357)" fill="#263238"/>
      <path id="Path_10769" data-name="Path 10769" d="M325.45,193.3a4.265,4.265,0,0,1,1.016.442,4.315,4.315,0,0,1,.894.663,4.265,4.265,0,0,1-1.016-.442,4.316,4.316,0,0,1-.894-.663Z" transform="translate(-289.416 -158.373)" fill="#263238"/>
      <path id="Path_10770" data-name="Path 10770" d="M327.66,183.967a4.88,4.88,0,0,1,2.211,0A4.879,4.879,0,0,1,327.66,183.967Z" transform="translate(-291.065 -151.315)" fill="#263238"/>
      <path id="Path_10771" data-name="Path 10771" d="M325.085,172.234a4.393,4.393,0,0,1,.894-.66,4.174,4.174,0,0,1,1.016-.444,4.857,4.857,0,0,1-1.914,1.1Z" transform="translate(-289.14 -141.831)" fill="#263238"/>
      <path id="Path_10772" data-name="Path 10772" d="M318.45,163.479a4.463,4.463,0,0,1,.442-1.016,4.317,4.317,0,0,1,.663-.894,4.263,4.263,0,0,1-.442,1.016A4.316,4.316,0,0,1,318.45,163.479Z" transform="translate(-284.193 -134.699)" fill="#263238"/>
      <path id="Path_10773" data-name="Path 10773" d="M315.708,252.4H238.189L227.18,191.27H304.7Z" transform="translate(-216.096 -156.858)" fill="#2491fe"/>
      <circle id="Ellipse_772" data-name="Ellipse 772" cx="3.222" cy="3.222" r="3.222" transform="translate(34.726 65.338)" fill="#273a51"/>
      <circle id="Ellipse_773" data-name="Ellipse 773" cx="3.222" cy="3.222" r="3.222" transform="translate(60.196 65.338)" fill="#273a51"/>
      <path id="Path_10774" data-name="Path 10774" d="M372.386,328.127l-.178-.338a6.139,6.139,0,0,0-5.029-3.108,3.982,3.982,0,0,0-3.829,3.021l-.091.368-.739-.178.089-.371a4.805,4.805,0,0,1,4.57-3.6,6.816,6.816,0,0,1,5.7,3.516l.178.335Z" transform="translate(-317.074 -255.83)" fill="#273a51"/>
      <path id="Path_10778" data-name="Path 10778" d="M555.553,323.711l-.053-.254c.165-.036.328-.074.49-.117l.063.254C555.881,323.637,555.721,323.675,555.553,323.711Z" transform="translate(-461.059 -255.397)" fill="#263238"/>
      <path id="Path_10779" data-name="Path 10779" d="M559.439,155.8l-.081-.239c.317-.109.635-.228.942-.358l.1.234C560.086,155.568,559.763,155.69,559.439,155.8Zm1.891-.81-.114-.223a10.043,10.043,0,0,0,.876-.508l.132.216A6.5,6.5,0,0,1,561.33,154.99Zm1.747-1.074-.15-.206c.274-.2.538-.411.787-.627l.168.19c-.267.231-.52.447-.807.652Zm1.549-1.351-.185-.175c.234-.254.454-.508.658-.762l.2.155c-.211.279-.437.541-.668.792Zm1.257-1.625-.216-.135a7.377,7.377,0,0,0,.467-.884l.234.1a8.556,8.556,0,0,1-.487.924Zm.84-1.884-.254-.071a6.64,6.64,0,0,0,.206-.972l.254.033a6.513,6.513,0,0,1-.208,1.021Zm.282-2.031h-.254v-.074c0-.307-.018-.619-.048-.927l.254-.025a9.2,9.2,0,0,1,.051.952Zm-.457-1.988a9.954,9.954,0,0,0-.254-.97l.254-.076a8.494,8.494,0,0,1,.254.993Zm-.6-1.912c-.122-.3-.254-.607-.416-.917l.229-.114c.155.315.3.63.421.934Zm-.889-1.81c-.157-.277-.33-.569-.508-.868l.216-.135c.185.3.361.6.508.878ZM564,139.591c-.185-.279-.373-.561-.566-.843l.211-.142c.193.282.381.564.566.848Zm-1.142-1.681c-.19-.279-.383-.561-.571-.84l.211-.142c.188.279.378.561.569.838Zm-1.135-1.691c-.185-.284-.366-.574-.543-.863l.216-.132c.178.289.358.574.541.858Zm-1.059-1.744c-.173-.307-.333-.612-.477-.9l.229-.114c.142.289.3.589.47.894Zm-.9-1.828c-.135-.317-.254-.64-.366-.955l.254-.081c.107.307.226.625.358.937Zm-.66-1.937c-.084-.33-.157-.668-.213-1.016l.254-.041c.056.325.124.655.208.98Zm-.34-2.031c-.025-.312-.038-.627-.038-.942v-.084h.254v.081a7.439,7.439,0,0,0,.038.922Zm.254-2.031-.254-.025c0-.069.013-.14.02-.213.031-.272.069-.543.114-.8l.254.043c-.043.254-.081.52-.112.787a.524.524,0,0,1-.01.218Zm.353-1.975-.254-.069c.094-.335.2-.663.325-.975l.236.091a9.3,9.3,0,0,0-.294.96Zm12.651-1.48a3.177,3.177,0,0,1-.434-.041c-.2-.028-.4-.061-.592-.1l.051-.254c.188.036.383.069.576.1.137.018.277.03.411.038Zm1.044-.079-.053-.254a2.93,2.93,0,0,0,.9-.35l.132.216a3.161,3.161,0,0,1-.97.4Zm-12.964-.3-.226-.119a9.011,9.011,0,0,1,.536-.878l.208.145a8.305,8.305,0,0,0-.505.861Zm9.9-.015a9.777,9.777,0,0,1-.965-.363l.1-.234a8.657,8.657,0,0,0,.937.353Zm4.824-.792-.211-.142a1.777,1.777,0,0,0,.31-.886l.254.018a2.03,2.03,0,0,1-.345,1.018Zm-6.7-.038a9.308,9.308,0,0,1-.861-.566l.15-.2a8.953,8.953,0,0,0,.838.548Zm-6.88-.792-.188-.17a8.6,8.6,0,0,1,.734-.724l.168.19a8.483,8.483,0,0,0-.706.711Zm5.228-.429a9.392,9.392,0,0,1-.719-.739l.19-.168a9.361,9.361,0,0,0,.7.719Zm8.264-.688a2.481,2.481,0,0,0-.592-.762l.168-.19a2.743,2.743,0,0,1,.653.835Zm-11.989-.2-.145-.208a9.8,9.8,0,0,1,.881-.536l.119.223a9.6,9.6,0,0,0-.848.528Zm2.371-.66c-.1-.137-.19-.277-.279-.421l-.33.129-.1-.234.292-.117c-.046-.076-.091-.152-.135-.228l.221-.124c.051.089.1.178.155.254q.213-.076.434-.145l.074.254c-.124.038-.254.079-.371.122a3.09,3.09,0,0,0,.254.363Zm8.208-.437a5.406,5.406,0,0,0-.762-.31l-.168-.053.074-.254.173.056a5.483,5.483,0,0,1,.792.322Zm-6.9-.454-.053-.254c.328-.074.668-.135,1.016-.183l.038.254c-.335.053-.668.117-.993.19Zm5-.137c-.317-.056-.652-.1-1-.129l.02-.254c.353.03.7.074,1.016.132Zm-3.008-.147-.018-.254c.3-.018.6-.028.9-.028h.124v.254H569.3c-.287.008-.586.015-.881.036Zm-4.291-.607c-.137-.31-.254-.632-.368-.96l.254-.079c.107.32.226.635.358.937Zm-.642-1.95c-.076-.328-.14-.668-.188-1.016l.254-.036c.048.335.109.668.183.99Zm-.284-2.031c-.013-.228-.02-.462-.02-.7v-.33h.254v.325c0,.229,0,.46.018.68Zm.3-2.031-.254-.025c.036-.335.084-.678.142-1.016l.254.043a9.674,9.674,0,0,0-.15,1Zm.348-1.983-.254-.061c.081-.328.175-.658.279-.988l.254.079c-.114.333-.208.655-.287.975Zm.609-1.922-.236-.091c.124-.317.254-.635.409-.942l.229.112a9.951,9.951,0,0,0-.409.937Zm.873-1.81-.221-.129c.173-.292.358-.584.551-.863l.208.145c-.2.279-.378.564-.546.853Zm1.145-1.653-.2-.16c.213-.254.442-.523.678-.762l.183.175a9.344,9.344,0,0,0-.67.752Zm1.381-1.462-.17-.188c.254-.226.508-.449.779-.665l.157.2c-.272.216-.531.437-.774.658Zm1.577-1.254-.145-.211c.277-.19.566-.378.861-.556l.13.216c-.295.18-.569.366-.853.556Zm1.724-1.049-.119-.223c.3-.16.609-.312.919-.454l.107.231c-.322.145-.619.3-.914.452Zm1.836-.843-.094-.239c.32-.124.642-.254.962-.348l.081.254c-.322.1-.642.213-.957.338Z" transform="translate(-463.462 -87.895)" fill="#263238"/>
      <path id="Path_10780" data-name="Path 10780" d="M622.453,97.531l-.063-.254c.315-.081.508-.117.508-.117l.046.254S622.761,97.452,622.453,97.531Z" transform="translate(-510.967 -86.641)" fill="#263238"/>
      <path id="Path_10781" data-name="Path 10781" d="M627.839,88.776c-.647-2.006-4.984-1.285-4.138,1.338S628.486,90.785,627.839,88.776Z" transform="translate(-511.863 -79.527)" fill="#263238"/>
      <path id="Path_10782" data-name="Path 10782" d="M614.728,85.109c.033-.881,1.257-1.559,2.988-1.247a9.658,9.658,0,0,1,3.359,1.48,9.814,9.814,0,0,1-3.458,1.226C615.868,86.76,614.7,85.988,614.728,85.109Z" transform="translate(-505.25 -76.663)" fill="#e1edf9" opacity="0.53"/>
      <path id="Path_10783" data-name="Path 10783" d="M623.913,89.318c-.9,0-1.8-.025-2.691-.053s-1.795-.074-2.691-.145c.9,0,1.8.023,2.694.051S623.019,89.244,623.913,89.318Z" transform="translate(-508.087 -80.643)" fill="#263238"/>
      <path id="Path_10784" data-name="Path 10784" d="M621.58,85.91a7.548,7.548,0,0,1,1.435.9,6.76,6.76,0,0,1-.741-.406A7.267,7.267,0,0,1,621.58,85.91Z" transform="translate(-510.363 -78.248)" fill="#263238"/>
      <path id="Path_10785" data-name="Path 10785" d="M626.485,89.57a8.245,8.245,0,0,1-1.485.96,8.244,8.244,0,0,1,1.493-.96Z" transform="translate(-512.914 -80.978)" fill="#263238"/>
      <path id="Path_10790" data-name="Path 10790" d="M631.88,87.62a1.838,1.838,0,0,1,.655.528,1.738,1.738,0,0,1-.358-.226,1.857,1.857,0,0,1-.3-.3Z" transform="translate(-518.048 -79.524)" fill="#263238"/>
      <path id="Path_10786" data-name="Path 10786" d="M620.611,98.082c.541.7,1.93.528,3.151-.736a9.772,9.772,0,0,0,1.869-3.166A9.781,9.781,0,0,0,622.1,95.2C620.578,96.059,620.067,97.384,620.611,98.082Z" transform="translate(-509.482 -84.418)" fill="#e1edf9" opacity="0.53"/>
      <path id="Path_10787" data-name="Path 10787" d="M628.51,94.18c-.731.508-1.442,1.071-2.156,1.617s-1.412,1.109-2.095,1.691c.731-.508,1.442-1.069,2.153-1.615S627.817,94.764,628.51,94.18Z" transform="translate(-512.362 -84.418)" fill="#263238"/>
      <path id="Path_10788" data-name="Path 10788" d="M628.58,103.4a7.267,7.267,0,0,0,.363-.762,6.786,6.786,0,0,0,.274-.8,7.053,7.053,0,0,0-.363.762A7.222,7.222,0,0,0,628.58,103.4Z" transform="translate(-515.586 -90.133)" fill="#263238"/>
      <path id="Path_10789" data-name="Path 10789" d="M628.777,99.6A8.393,8.393,0,0,0,627,99.7a7.411,7.411,0,0,0,.889,0,7.9,7.9,0,0,0,.889-.094Z" transform="translate(-514.407 -88.457)" fill="#263238"/>
      <path id="Path_10791" data-name="Path 10791" d="M635.93,98.235a1.814,1.814,0,0,0,.157-.4,1.9,1.9,0,0,0,.066-.419,1.892,1.892,0,0,0-.223.815Z" transform="translate(-521.069 -86.835)" fill="#263238"/>
      <path id="Path_10792" data-name="Path 10792" d="M637.39,87.793a.762.762,0,1,1,.49-.957A.762.762,0,0,1,637.39,87.793Z" transform="translate(-521.415 -78.544)" fill="#455a64"/>
      <path id="Path_10795" data-name="Path 10795" d="M639.232,93.5a.762.762,0,1,1,.49-.96.762.762,0,0,1-.49.96Z" transform="translate(-522.789 -82.803)" fill="#455a64"/>
    </g>
  </g>
</svg>
