<svg width="43" height="43" viewBox="0 0 43 43" fill="none" xmlns="http://www.w3.org/2000/svg">
<circle cx="21.5" cy="21.5" r="21.5" fill="#D8E1ED" fill-opacity="0.37"/>
<path fill-rule="evenodd" clip-rule="evenodd" d="M26.25 18.6875H18.75C18.4908 18.6875 18.2812 18.478 18.2812 18.2188C18.2812 17.96 18.4908 17.75 18.75 17.75H26.25C26.5092 17.75 26.7188 17.96 26.7188 18.2188C26.7188 18.478 26.5092 18.6875 26.25 18.6875ZM26.25 21.5H18.75C18.4908 21.5 18.2812 21.2905 18.2812 21.0312C18.2812 20.7725 18.4908 20.5625 18.75 20.5625H26.25C26.5092 20.5625 26.7188 20.7725 26.7188 21.0312C26.7188 21.2905 26.5092 21.5 26.25 21.5ZM26.25 24.3125H18.75C18.4908 24.3125 18.2812 24.103 18.2812 23.8438C18.2812 23.585 18.4908 23.375 18.75 23.375H26.25C26.5092 23.375 26.7188 23.585 26.7188 23.8438C26.7188 24.103 26.5092 24.3125 26.25 24.3125ZM28.125 14H16.875C15.8466 14 15 14.923 15 15.9523V27.1358C15 28.1656 15.8339 29 16.8628 29H28.0392C29.0681 29 30 28.1544 30 27.125V15.875C30 14.8456 29.1534 14 28.125 14Z" fill="#3982A7"/>
</svg>
