<svg width="43" height="43" viewBox="0 0 43 43" fill="none" xmlns="http://www.w3.org/2000/svg">
<path d="M19.7354 16.9884C19.8228 16.9884 19.9117 16.9688 19.9954 16.9273C20.4482 16.7026 20.935 16.5852 21.4423 16.5784C21.4474 16.5784 21.4523 16.5777 21.4574 16.5775C21.4617 16.5776 21.466 16.5781 21.4703 16.5781C21.4858 16.5781 21.5009 16.577 21.5161 16.5758C21.5297 16.577 21.5432 16.5783 21.557 16.5784C23.4154 16.6034 24.9274 18.1278 24.9274 19.9766V22.0273C24.9274 22.9219 25.2781 23.7104 25.9417 24.3073C26.41 24.7287 26.8759 24.9105 26.9499 24.9377C27.0214 24.9689 27.1002 24.9863 27.1832 24.9863C27.5068 24.9863 27.7692 24.724 27.7692 24.4004C27.7692 24.1354 27.5932 23.9117 27.3517 23.8393L27.3525 23.8372L27.3562 23.8386C27.3049 23.8193 26.0992 23.3506 26.0992 22.0273V19.9766C26.0992 17.653 24.3257 15.7106 22.0563 15.4389V14.5859C22.0563 14.2623 21.7939 14 21.4703 14C21.1467 14 20.8844 14.2623 20.8844 14.5859V15.4463C20.3948 15.5112 19.9224 15.6553 19.4746 15.8775C19.1847 16.0213 19.0663 16.3729 19.2101 16.6628C19.3124 16.869 19.5198 16.9884 19.7354 16.9884Z" fill="#3982A7"/>
<path d="M28.8284 27.9997L15.0003 14.1716C14.7714 13.9428 14.4004 13.9428 14.1716 14.1716C13.9428 14.4005 13.9428 14.7715 14.1716 15.0003L17.3144 18.1431C17.0623 18.7188 16.9297 19.3458 16.9297 19.9766V22.0273C16.9297 23.3358 15.7508 23.8087 15.6749 23.8378C15.4394 23.9197 15.2891 24.1391 15.2891 24.3885C15.2891 25.0035 15.5081 25.6758 15.8751 26.1871C16.3634 26.8675 17.0919 27.2422 17.9261 27.2422H19.7422C19.7422 28.2114 20.5307 29 21.5 29C22.4692 29 23.2578 28.2114 23.2578 27.2422H25.0739C25.4786 27.2422 25.85 27.1645 26.1827 27.0114L27.9997 28.8284C28.1141 28.9428 28.2641 29 28.4141 29C28.564 29 28.714 28.9428 28.8284 28.8284C29.0572 28.5996 29.0572 28.2286 28.8284 27.9997ZM21.5 27.8281C21.1769 27.8281 20.9141 27.5653 20.9141 27.2422H22.0859C22.0859 27.5653 21.8231 27.8281 21.5 27.8281ZM25.0739 26.0703H17.9261C17.0199 26.0703 16.6155 25.311 16.4986 24.7346C16.6715 24.6344 16.8791 24.4946 17.0872 24.3073C17.7508 23.7104 18.1016 22.922 18.1016 22.0273V19.9766C18.1016 19.6654 18.1449 19.3556 18.2286 19.0573L25.2339 26.0626C25.1818 26.0672 25.1288 26.0703 25.0739 26.0703Z" fill="#3982A7"/>
<circle cx="21.5" cy="21.5" r="21.5" fill="#D8E1ED" fill-opacity="0.37"/>
</svg>
