<svg width="16" height="20" viewBox="0 0 16 20" fill="none" xmlns="http://www.w3.org/2000/svg">
<g clip-path="url(#clip0_143_8137)">
<path d="M15.029 12.49L14.029 10.83C13.7942 10.3699 13.6579 9.86582 13.629 9.35004V6.82004C13.6279 5.70405 13.3108 4.61118 12.7144 3.66791C12.118 2.72465 11.2667 1.96956 10.259 1.49004C10.0018 1.03338 9.62665 0.654181 9.1728 0.392073C8.71895 0.129965 8.20302 -0.00542991 7.67895 3.71725e-05C7.15093 -0.000550327 6.63235 0.14007 6.17696 0.407329C5.72156 0.674587 5.34592 1.05876 5.08895 1.52004C4.1003 2.009 3.26766 2.76409 2.68468 3.70039C2.1017 4.6367 1.79149 5.71708 1.78895 6.82004V9.35004C1.76122 9.86283 1.62488 10.3639 1.38895 10.82L0.378953 12.49C0.17771 12.7963 0.0513279 13.1457 0.0100137 13.5098C-0.0313004 13.874 0.013612 14.2428 0.141123 14.5864C0.268635 14.93 0.47517 15.2388 0.744048 15.4878C1.01293 15.7369 1.33661 15.9192 1.68895 16.02C3.62847 16.674 5.66218 17.005 7.70895 17C9.7548 17.0035 11.7877 16.6759 13.729 16.03C14.0728 15.9158 14.3865 15.7254 14.6467 15.4732C14.9069 15.221 15.1068 14.9134 15.2318 14.5732C15.3567 14.2331 15.4033 13.8691 15.3682 13.5085C15.3331 13.1478 15.2171 12.7997 15.029 12.49Z" fill="#051a53"/>
<path d="M10.5191 18.01C10.3088 18.5922 9.92442 19.0954 9.4181 19.4515C8.91177 19.8075 8.30811 19.999 7.68914 20C7.29431 20.0003 6.90341 19.9217 6.53936 19.7689C6.17531 19.616 5.84545 19.392 5.56914 19.11C5.24999 18.8016 5.00988 18.4209 4.86914 18C4.99914 18.02 5.12914 18.03 5.26914 18.05C5.49914 18.08 5.73914 18.11 5.97914 18.13C6.54914 18.18 7.12914 18.21 7.70914 18.21C8.28914 18.21 8.84914 18.18 9.40914 18.13C9.61914 18.11 9.82914 18.1 10.0291 18.07L10.5191 18.01Z" fill="#051a53"/>
</g>
<defs>
<clipPath id="clip0_143_8137">
<rect width="15.384" height="20" fill="white"/>
</clipPath>
</defs>
</svg>
