<svg width="34" height="34" viewBox="0 0 34 34" fill="none" xmlns="http://www.w3.org/2000/svg">
<path d="M17.0007 0.333008C7.81732 0.333008 0.333984 7.81634 0.333984 16.9997C0.333984 26.183 7.81732 33.6663 17.0007 33.6663C26.184 33.6663 33.6673 26.183 33.6673 16.9997C33.6673 7.81634 26.184 0.333008 17.0007 0.333008ZM23.6673 18.2497H18.2507V23.6663C18.2507 24.3497 17.684 24.9163 17.0007 24.9163C16.3173 24.9163 15.7507 24.3497 15.7507 23.6663V18.2497H10.334C9.65065 18.2497 9.08398 17.683 9.08398 16.9997C9.08398 16.3163 9.65065 15.7497 10.334 15.7497H15.7507V10.333C15.7507 9.64967 16.3173 9.08301 17.0007 9.08301C17.684 9.08301 18.2507 9.64967 18.2507 10.333V15.7497H23.6673C24.3507 15.7497 24.9173 16.3163 24.9173 16.9997C24.9173 17.683 24.3507 18.2497 23.6673 18.2497Z" fill="#0096DF"/>
</svg>
