<svg width="31" height="29" viewBox="0 0 31 29" fill="none" xmlns="http://www.w3.org/2000/svg">
<path d="M29.9348 3.86705C29.8817 2.86813 29.4686 1.92386 28.7742 1.21375C28.0799 0.503651 27.1525 0.0772429 26.1685 0.0156032C26.0321 0.00295314 25.8952 -0.00201128 25.7582 0.000732728H5.24179C5.10484 -0.00201128 4.96786 0.00295314 4.83146 0.0156032C3.84749 0.0772429 2.92014 0.503651 2.22575 1.21375C1.53136 1.92386 1.11834 2.86813 1.06523 3.86705L0.0100975 23.1094C-0.0410856 23.9618 0.102806 24.8146 0.430512 25.6012C0.758218 26.3878 1.26085 27.0868 1.89907 27.6434C2.98794 28.5533 4.36363 29.0343 5.77375 28.9981H25.2263C26.6364 29.0343 28.0121 28.5533 29.1009 27.6434C29.7392 27.0868 30.2418 26.3878 30.5695 25.6012C30.8972 24.8146 31.0411 23.9618 30.9899 23.1094L29.9348 3.86705ZM5.24179 2.2313H25.7582C26.244 2.2313 26.71 2.42714 27.0535 2.77573C27.397 3.12432 27.59 3.59712 27.59 4.0901C27.59 4.58309 27.397 5.05588 27.0535 5.40448C26.71 5.75307 26.244 5.94891 25.7582 5.94891H5.24179C4.75596 5.94891 4.29003 5.75307 3.94649 5.40448C3.60296 5.05588 3.40996 4.58309 3.40996 4.0901C3.40996 3.59712 3.60296 3.12432 3.94649 2.77573C4.29003 2.42714 4.75596 2.2313 5.24179 2.2313ZM17.6982 24.537H10.3709C10.0794 24.537 9.79984 24.4195 9.59372 24.2103C9.3876 24.0011 9.2718 23.7175 9.2718 23.4217C9.2718 23.1259 9.3876 22.8422 9.59372 22.6331C9.79984 22.4239 10.0794 22.3064 10.3709 22.3064H17.6982C18.5727 22.3064 19.4114 21.9539 20.0297 21.3264C20.6481 20.699 20.9955 19.8479 20.9955 18.9605C20.9955 18.0732 20.6481 17.2221 20.0297 16.5947C19.4114 15.9672 18.5727 15.6147 17.6982 15.6147H11.5579L12.613 16.6854C12.8174 16.8952 12.9321 17.1784 12.9321 17.4735C12.9321 17.7686 12.8174 18.0518 12.613 18.2616C12.5112 18.3654 12.3902 18.4477 12.2569 18.5039C12.1236 18.5601 11.9807 18.589 11.8364 18.589C11.692 18.589 11.5491 18.5601 11.4158 18.5039C11.2825 18.4477 11.1615 18.3654 11.0597 18.2616L8.12874 15.2875C7.92434 15.0777 7.80971 14.7945 7.80971 14.4994C7.80971 14.2043 7.92434 13.9212 8.12874 13.7113L11.0597 10.7372C11.268 10.5402 11.5436 10.4329 11.8283 10.438C12.1131 10.4431 12.3847 10.5602 12.5861 10.7645C12.7875 10.9689 12.9028 11.2445 12.9079 11.5335C12.9129 11.8224 12.8072 12.102 12.613 12.3135L11.5579 13.3841H17.6982C19.1557 13.3841 20.5535 13.9716 21.5841 15.0174C22.6147 16.0632 23.1937 17.4816 23.1937 18.9605C23.1937 20.4395 22.6147 21.8579 21.5841 22.9037C20.5535 23.9494 19.1557 24.537 17.6982 24.537Z" fill="#0096DF"/>
</svg>
