<svg width="110" height="103" viewBox="0 0 110 103" fill="none" xmlns="http://www.w3.org/2000/svg">
<path d="M106.22 13.7347C106.032 10.1868 104.566 6.83301 102.102 4.31092C99.6382 1.78883 96.3476 0.274346 92.8561 0.0554181C92.3721 0.0104887 91.886 -0.00714352 91.4001 0.00260245H18.5999C18.114 -0.00714352 17.6279 0.0104887 17.1439 0.0554181C13.6524 0.274346 10.3618 1.78883 7.89783 4.31092C5.43386 6.83301 3.96832 10.1868 3.77984 13.7347L0.03583 82.0782C-0.145788 85.1057 0.364795 88.1348 1.52762 90.9285C2.69045 93.7222 4.47398 96.2047 6.73865 98.1817C10.6024 101.413 15.4839 103.122 20.4875 102.993H89.5125C94.5162 103.122 99.3977 101.413 103.261 98.1817C105.526 96.2047 107.31 93.7222 108.472 90.9285C109.635 88.1348 110.146 85.1057 109.964 82.0782L106.22 13.7347ZM18.5999 7.92496H91.4001C93.124 7.92496 94.7773 8.62052 95.9963 9.85863C97.2153 11.0967 97.9001 12.776 97.9001 14.5269C97.9001 16.2779 97.2153 17.9571 95.9963 19.1952C94.7773 20.4333 93.124 21.1289 91.4001 21.1289H18.5999C16.876 21.1289 15.2227 20.4333 14.0037 19.1952C12.7847 17.9571 12.0999 16.2779 12.0999 14.5269C12.0999 12.776 12.7847 11.0967 14.0037 9.85863C15.2227 8.62052 16.876 7.92496 18.5999 7.92496ZM62.8 87.1485H36.7999C35.7656 87.1485 34.7736 86.7312 34.0422 85.9883C33.3108 85.2455 32.8999 84.2379 32.8999 83.1873C32.8999 82.1368 33.3108 81.1292 34.0422 80.3864C34.7736 79.6435 35.7656 79.2262 36.7999 79.2262H62.8C65.9031 79.2262 68.879 77.9742 71.0732 75.7456C73.2674 73.517 74.5001 70.4943 74.5001 67.3426C74.5001 64.1909 73.2674 61.1683 71.0732 58.9397C68.879 56.7111 65.9031 55.4591 62.8 55.4591H41.012L44.756 59.2618C45.4813 60.0073 45.888 61.013 45.888 62.0611C45.888 63.1091 45.4813 64.1149 44.756 64.8603C44.3946 65.2289 43.9651 65.5213 43.4921 65.7209C43.0192 65.9204 42.5121 66.0231 42 66.0231C41.4878 66.0231 40.9807 65.9204 40.5078 65.7209C40.0348 65.5213 39.6053 65.2289 39.244 64.8603L28.8439 54.2972C28.1186 53.5517 27.7119 52.5459 27.7119 51.4979C27.7119 50.4499 28.1186 49.4441 28.8439 48.6987L39.244 38.1355C39.9833 37.4358 40.9611 37.0549 41.9715 37.073C42.9818 37.0911 43.9459 37.5069 44.6604 38.2326C45.375 38.9584 45.7843 39.9375 45.8021 40.9637C45.8199 41.9899 45.4449 42.9831 44.756 43.734L41.012 47.5367H62.8C67.9718 47.5367 72.9317 49.6234 76.5886 53.3378C80.2456 57.0521 82.3001 62.0898 82.3001 67.3426C82.3001 72.5955 80.2456 77.6332 76.5886 81.3475C72.9317 85.0618 67.9718 87.1485 62.8 87.1485Z" fill="#0096DF" fill-opacity="0.05"/>
</svg>
