<svg width="47" height="47" viewBox="0 0 47 47" fill="none" xmlns="http://www.w3.org/2000/svg">
<circle cx="23.5" cy="23.5" r="23.5" fill="#E6EEF8"/>
<path d="M31.1 20.658C29.29 20.658 28.55 19.378 29.45 17.808C29.6999 17.3716 29.7665 16.8539 29.6353 16.3684C29.504 15.8829 29.1857 15.4692 28.75 15.218L27.02 14.228C26.638 14.0058 26.1834 13.9441 25.7559 14.0566C25.3285 14.1691 24.9631 14.4465 24.74 14.828L24.63 15.018C23.73 16.588 22.25 16.588 21.34 15.018L21.23 14.828C21.1222 14.639 20.9779 14.4733 20.8055 14.3406C20.633 14.2079 20.4359 14.1108 20.2256 14.0549C20.0153 13.9991 19.796 13.9857 19.5804 14.0154C19.3649 14.0451 19.1574 14.1174 18.97 14.228L17.24 15.218C16.8032 15.4708 16.4843 15.8862 16.3531 16.3735C16.2219 16.8608 16.2891 17.3802 16.54 17.818C17.45 19.378 16.71 20.658 14.9 20.658C14.3966 20.6596 13.9142 20.8603 13.5582 21.2163C13.2023 21.5723 13.0016 22.0546 13 22.558V24.318C13.0016 24.8215 13.2023 25.3038 13.5582 25.6598C13.9142 26.0158 14.3966 26.2165 14.9 26.218C16.71 26.218 17.45 27.498 16.54 29.068C16.2901 29.5045 16.2235 30.0222 16.3547 30.5077C16.486 30.9932 16.8043 31.4069 17.24 31.658L18.97 32.648C19.352 32.8703 19.8066 32.932 20.2341 32.8195C20.6615 32.707 21.0269 32.4296 21.25 32.048L21.36 31.858C22.26 30.288 23.74 30.288 24.65 31.858L24.76 32.048C24.9831 32.4296 25.3485 32.707 25.7759 32.8195C26.2034 32.932 26.658 32.8703 27.04 32.648L28.77 31.658C29.2057 31.4069 29.524 30.9932 29.6553 30.5077C29.7865 30.0222 29.7199 29.5045 29.47 29.068C28.56 27.498 29.3 26.218 31.11 26.218C31.6134 26.2165 32.0958 26.0158 32.4518 25.6598C32.8077 25.3038 33.0084 24.8215 33.01 24.318V22.558C33.0045 22.0541 32.8012 21.5725 32.4439 21.2171C32.0866 20.8617 31.604 20.6609 31.1 20.658ZM23 26.688C22.3572 26.688 21.7289 26.4974 21.1944 26.1403C20.6599 25.7832 20.2434 25.2756 19.9974 24.6818C19.7514 24.0879 19.687 23.4344 19.8124 22.804C19.9378 22.1736 20.2474 21.5945 20.7019 21.1399C21.1564 20.6854 21.7355 20.3759 22.366 20.2505C22.9964 20.1251 23.6499 20.1894 24.2437 20.4354C24.8376 20.6814 25.3452 21.098 25.7023 21.6324C26.0594 22.1669 26.25 22.7953 26.25 23.438C26.2484 24.2995 25.9055 25.1252 25.2963 25.7344C24.6872 26.3435 23.8615 26.6865 23 26.688Z" fill="#051a53"/>
</svg>
