<svg width="37" height="37" viewBox="0 0 37 37" fill="none" xmlns="http://www.w3.org/2000/svg">
<circle cx="18.5" cy="18.5" r="18.5" fill="#F1F4F9"/>
<path fill-rule="evenodd" clip-rule="evenodd" d="M15.8889 11.3304V12.2174H14.7333C14.5057 12.2174 14.2803 12.2633 14.07 12.3524C13.8597 12.4416 13.6686 12.5722 13.5077 12.737C13.3467 12.9017 13.2191 13.0972 13.1319 13.3125C13.0448 13.5277 13 13.7584 13 13.9913V25.2261C13 25.6966 13.1826 26.1478 13.5077 26.4804C13.6686 26.6452 13.8597 26.7758 14.07 26.865C14.2803 26.9541 14.5057 27 14.7333 27H24.2667C24.7264 27 25.1673 26.8131 25.4923 26.4804C25.8174 26.1478 26 25.6966 26 25.2261V13.9913C26 13.5208 25.8174 13.0696 25.4923 12.737C25.1673 12.4043 24.7264 12.2174 24.2667 12.2174H23.1111V11.3304C23.1111 10.9776 22.9741 10.6392 22.7303 10.3897C22.4866 10.1402 22.1559 10 21.8111 10H17.1889C16.8441 10 16.5134 10.1402 16.2696 10.3897C16.0259 10.6392 15.8889 10.9776 15.8889 11.3304ZM21.6667 11.4783H17.3333V12.9565H21.6667V11.4783ZM22.9768 17.8207C23.0319 17.7417 23.0712 17.6524 23.0926 17.5578C23.114 17.4632 23.1169 17.3653 23.1013 17.2695C23.0857 17.1738 23.0518 17.0821 23.0015 16.9998C22.9513 16.9175 22.8857 16.846 22.8085 16.7897C22.7313 16.7333 22.644 16.693 22.5516 16.6711C22.4592 16.6492 22.3635 16.6462 22.2699 16.6622C22.1763 16.6782 22.0868 16.7129 22.0063 16.7643C21.9259 16.8157 21.8561 16.8829 21.801 16.9619L18.6853 21.4262L17.1217 19.8253C16.9855 19.6906 16.8031 19.6161 16.6137 19.6178C16.4243 19.6195 16.2432 19.6972 16.1093 19.8343C15.9754 19.9713 15.8994 20.1567 15.8978 20.3505C15.8961 20.5443 15.9689 20.731 16.1005 20.8704L18.2672 23.0878C18.3413 23.1636 18.4307 23.2219 18.5292 23.2588C18.6276 23.2957 18.7327 23.3102 18.8371 23.3013C18.9416 23.2925 19.0429 23.2605 19.134 23.2075C19.2252 23.1545 19.304 23.0819 19.3649 22.9947L22.9768 17.8207Z" fill="#3982A7"/>
</svg>
