<svg width="20" height="14" viewBox="0 0 20 14" fill="none" xmlns="http://www.w3.org/2000/svg">
<path d="M15.9995 8H3.99951C3.7343 8 3.47994 7.89464 3.29241 7.70711C3.10487 7.51957 2.99951 7.26522 2.99951 7C2.99951 6.73478 3.10487 6.48043 3.29241 6.29289C3.47994 6.10536 3.7343 6 3.99951 6H15.9995C16.2647 6 16.5191 6.10536 16.7066 6.29289C16.8942 6.48043 16.9995 6.73478 16.9995 7C16.9995 7.26522 16.8942 7.51957 16.7066 7.70711C16.5191 7.89464 16.2647 8 15.9995 8Z" fill="#051a53"/>
<path d="M12.9995 14H6.99951C6.7343 14 6.47994 13.8946 6.29241 13.7071C6.10487 13.5196 5.99951 13.2652 5.99951 13C5.99951 12.7348 6.10487 12.4804 6.29241 12.2929C6.47994 12.1054 6.7343 12 6.99951 12H12.9995C13.2647 12 13.5191 12.1054 13.7066 12.2929C13.8942 12.4804 13.9995 12.7348 13.9995 13C13.9995 13.2652 13.8942 13.5196 13.7066 13.7071C13.5191 13.8946 13.2647 14 12.9995 14Z" fill="#051a53"/>
<path d="M18.9998 1.99999H0.99975C0.866336 2.00801 0.732739 1.98764 0.607779 1.94022C0.482819 1.89281 0.369339 1.81942 0.274831 1.72491C0.180323 1.6304 0.106938 1.51692 0.0595198 1.39196C0.0121018 1.267 -0.00826999 1.13341 -0.000250354 0.999994C-0.00826999 0.86658 0.0121018 0.732983 0.0595198 0.608023C0.106938 0.483063 0.180323 0.369583 0.274831 0.275075C0.369339 0.180567 0.482819 0.107182 0.607779 0.0597639C0.732739 0.0123459 0.866336 -0.00802585 0.99975 -6.2132e-06H18.9998C19.1332 -0.00802585 19.2668 0.0123459 19.3917 0.0597639C19.5167 0.107182 19.6302 0.180567 19.7247 0.275075C19.8192 0.369583 19.8926 0.483063 19.94 0.608023C19.9874 0.732983 20.0078 0.86658 19.9998 0.999994C20.0078 1.13341 19.9874 1.267 19.94 1.39196C19.8926 1.51692 19.8192 1.6304 19.7247 1.72491C19.6302 1.81942 19.5167 1.89281 19.3917 1.94022C19.2668 1.98764 19.1332 2.00801 18.9998 1.99999Z" fill="#051a53"/>
</svg>
