<svg width="37" height="37" viewBox="0 0 37 37" fill="none" xmlns="http://www.w3.org/2000/svg">
<circle cx="18.5" cy="18.5" r="18.5" fill="#F1F4F9"/>
<path fill-rule="evenodd" clip-rule="evenodd" d="M13 12C13 11.4477 13.4477 11 14 11H24C24.5523 11 25 11.4477 25 12V26C25 26.5523 24.5523 27 24 27H23.4142C23.149 27 22.8946 26.8946 22.7071 26.7071L21.7071 25.7071C21.3166 25.3166 20.6834 25.3166 20.2929 25.7071L19.7071 26.2929C19.3166 26.6834 18.6834 26.6834 18.2929 26.2929L17.7071 25.7071C17.3166 25.3166 16.6834 25.3166 16.2929 25.7071L15.2929 26.7071C15.1054 26.8946 14.851 27 14.5858 27H14C13.4477 27 13 26.5523 13 26V12ZM16 16C16 15.4477 16.4477 15 17 15H21C21.5523 15 22 15.4477 22 16C22 16.5523 21.5523 17 21 17H17C16.4477 17 16 16.5523 16 16ZM22 20C22 19.4477 21.5523 19 21 19H17C16.4477 19 16 19.4477 16 20C16 20.5523 16.4477 21 17 21H21C21.5523 21 22 20.5523 22 20Z" fill="#3982A7"/>
</svg>
