<svg width="31" height="24" viewBox="0 0 31 24" fill="none" xmlns="http://www.w3.org/2000/svg">
<path d="M4.52116 6H26.4795C27.3359 6 28.1573 5.73661 28.7629 5.26777C29.3684 4.79893 29.7087 4.16304 29.7087 3.5C29.7087 2.83696 29.3684 2.20107 28.7629 1.73223C28.1573 1.26339 27.3359 1 26.4795 1H4.52116C3.66473 1 2.84338 1.26339 2.23779 1.73223C1.63221 2.20107 1.29199 2.83696 1.29199 3.5C1.29199 4.16304 1.63221 4.79893 2.23779 5.26777C2.84338 5.73661 3.66473 6 4.52116 6Z" fill="white"/>
<path d="M26.4795 9.5H4.52116C3.66473 9.5 2.84338 9.76339 2.23779 10.2322C1.63221 10.7011 1.29199 11.337 1.29199 12C1.29199 12.663 1.63221 13.2989 2.23779 13.7678C2.84338 14.2366 3.66473 14.5 4.52116 14.5H26.4795C27.3359 14.5 28.1573 14.2366 28.7629 13.7678C29.3684 13.2989 29.7087 12.663 29.7087 12C29.7087 11.337 29.3684 10.7011 28.7629 10.2322C28.1573 9.76339 27.3359 9.5 26.4795 9.5Z" fill="white"/>
<path d="M26.4795 18H4.52116C3.66473 18 2.84338 18.2634 2.23779 18.7322C1.63221 19.2011 1.29199 19.837 1.29199 20.5C1.29199 21.163 1.63221 21.7989 2.23779 22.2678C2.84338 22.7366 3.66473 23 4.52116 23H26.4795C27.3359 23 28.1573 22.7366 28.7629 22.2678C29.3684 21.7989 29.7087 21.163 29.7087 20.5C29.7087 19.837 29.3684 19.2011 28.7629 18.7322C28.1573 18.2634 27.3359 18 26.4795 18Z" fill="white"/>
</svg>
