<svg width="47" height="47" viewBox="0 0 47 47" fill="none" xmlns="http://www.w3.org/2000/svg">
<circle cx="23.5" cy="23.5" r="23.5" fill="#D7EAF3"/>
<path d="M28.9091 16.2308C28.9091 15.7847 29.2707 15.4231 29.7168 15.4231H31C32.1046 15.4231 33 16.3185 33 17.4231V32C33 33.1046 32.1046 34 31 34H17C15.8954 34 15 33.1046 15 32V17.4231C15 16.3185 15.8954 15.4231 17 15.4231H18.2832C18.7293 15.4231 19.0909 15.7847 19.0909 16.2308C19.0909 16.6768 19.4525 17.0385 19.8986 17.0385H28.1014C28.5475 17.0385 28.9091 16.6768 28.9091 16.2308ZM18.2727 22.6923C18.2727 23.1384 18.6343 23.5 19.0804 23.5H28.9196C29.3657 23.5 29.7273 23.1384 29.7273 22.6923C29.7273 22.2462 29.3657 21.8846 28.9196 21.8846H19.0804C18.6343 21.8846 18.2727 22.2462 18.2727 22.6923ZM18.2727 29.1538C18.2727 29.5999 18.6343 29.9615 19.0804 29.9615H28.9196C29.3657 29.9615 29.7273 29.5999 29.7273 29.1538C29.7273 28.7078 29.3657 28.3462 28.9196 28.3462H19.0804C18.6343 28.3462 18.2727 28.7078 18.2727 29.1538ZM21.9388 15.4231C21.2697 15.4231 20.7273 14.8807 20.7273 14.2115C20.7273 13.5424 21.2697 13 21.9388 13H26.0612C26.7303 13 27.2727 13.5424 27.2727 14.2115C27.2727 14.8807 26.7303 15.4231 26.0612 15.4231H21.9388Z" fill="#051a53"/>
</svg>
