<svg width="18" height="21" viewBox="0 0 18 21" fill="none" xmlns="http://www.w3.org/2000/svg">
<path d="M13.9091 3.23077C13.9091 2.78469 14.2707 2.42308 14.7168 2.42308H16C17.1046 2.42308 18 3.31851 18 4.42308V19C18 20.1046 17.1046 21 16 21H2C0.89543 21 0 20.1046 0 19V4.42308C0 3.31851 0.895431 2.42308 2 2.42308H3.28322C3.72929 2.42308 4.09091 2.78469 4.09091 3.23077C4.09091 3.67685 4.45253 4.03846 4.8986 4.03846H13.1014C13.5475 4.03846 13.9091 3.67685 13.9091 3.23077ZM3.27273 9.69231C3.27273 10.1384 3.63434 10.5 4.08042 10.5H13.9196C14.3657 10.5 14.7273 10.1384 14.7273 9.69231C14.7273 9.24623 14.3657 8.88461 13.9196 8.88461H4.08042C3.63434 8.88461 3.27273 9.24623 3.27273 9.69231ZM3.27273 16.1538C3.27273 16.5999 3.63434 16.9615 4.08042 16.9615H13.9196C14.3657 16.9615 14.7273 16.5999 14.7273 16.1538C14.7273 15.7078 14.3657 15.3462 13.9196 15.3462H4.08042C3.63434 15.3462 3.27273 15.7078 3.27273 16.1538ZM6.93881 2.42308C6.2697 2.42308 5.72727 1.88065 5.72727 1.21154C5.72727 0.542424 6.2697 0 6.93881 0H11.0612C11.7303 0 12.2727 0.542424 12.2727 1.21154C12.2727 1.88065 11.7303 2.42308 11.0612 2.42308H6.93881Z" fill="#fff"/>
</svg>