<svg width="9" height="5" viewBox="0 0 9 5" fill="none" xmlns="http://www.w3.org/2000/svg">
<path d="M0.424938 4.67296H8.07194C8.15584 4.67276 8.23781 4.64772 8.30751 4.601C8.37721 4.55429 8.43153 4.48799 8.46361 4.41046C8.49569 4.33293 8.5041 4.24764 8.48779 4.16533C8.47148 4.08303 8.43117 4.00739 8.37194 3.94796L4.54894 0.12396C4.46928 0.0445751 4.3614 0 4.24894 0C4.13648 0 4.0286 0.0445751 3.94894 0.12396L0.124938 3.94796C0.0657102 4.00739 0.0253994 4.08303 0.00908641 4.16533C-0.00722662 4.24764 0.00118802 4.33293 0.0332697 4.41046C0.0653513 4.48799 0.119665 4.55429 0.189365 4.601C0.259065 4.64772 0.341033 4.67276 0.424938 4.67296Z" fill="#0096DF"/>
</svg>
