<svg width="16" height="17" viewBox="0 0 16 17" fill="none" xmlns="http://www.w3.org/2000/svg">
<path d="M12.2799 14.5573H11.2107L10.619 12.9905C10.9414 12.9316 11.1849 12.6565 11.1849 12.3178C11.1849 11.9344 10.8746 11.6341 10.4912 11.6341H10.1041L9.61966 10.3413H10.6095C10.6905 10.3413 10.7731 10.3302 10.8346 10.3034V8.98326C10.7731 8.95696 10.6915 8.95643 10.6095 8.95643H9.10265L8.61877 7.66364H10.6095C10.6905 7.66364 10.7731 7.64208 10.8346 7.61789V6.37717C10.742 6.37717 10.6295 6.34087 10.5348 6.30984H8.10018L7.61631 5.01653H10.3265L11.2254 4.00355C11.1092 3.77896 10.8783 3.6317 10.61 3.6317H7.09667L6.47341 2.00019H12.2804V2.87275C12.6502 2.60872 13.204 2.59715 13.6043 2.83909V1.80138C13.6043 1.1308 13.0941 0.584858 12.4235 0.584858H5.95535L5.93589 0.534893C5.81229 0.212485 5.50198 0 5.15643 0H1.32855C0.602741 0 0 0.575391 0 1.30068V15.2947C0 16.02 0.602741 16.5885 1.32803 16.5885H11.2853C11.4416 16.5885 11.5867 16.5102 11.6756 16.3813C11.764 16.2535 11.7839 16.0957 11.7282 15.9416H12.4225C13.093 15.9416 13.6032 15.4114 13.6032 14.7414V11.6951H12.2794V14.5573H12.2799Z" fill="#051a53"/>
<path d="M15.2671 5.44628L13.4752 3.40769C13.3463 3.26095 13.1596 3.17627 12.965 3.17627C12.7688 3.17627 12.5821 3.26042 12.4538 3.40716L10.6624 5.44575C10.5998 5.51728 10.5851 5.61879 10.624 5.70505C10.6624 5.79078 10.7487 5.84705 10.8438 5.84705H11.3872V10.3897C11.3872 10.812 11.7132 11.1418 12.1356 11.1418H13.7934C14.2152 11.1418 14.5565 10.812 14.5565 10.3897V5.84705H15.0856C15.1803 5.84705 15.2661 5.7913 15.3044 5.70505C15.3449 5.61932 15.3297 5.51728 15.2671 5.44628Z" fill="#051a53"/>
</svg>
