<svg width="15" height="20" viewBox="0 0 15 20" fill="none" xmlns="http://www.w3.org/2000/svg">
<g clip-path="url(#clip0_143_8432)">
<path d="M7.0398 2.55307e-05C5.79438 0.00442013 4.6006 0.498182 3.71595 1.37481C2.8313 2.25143 2.32667 3.44066 2.31093 4.68599C2.29518 5.93131 2.76957 7.13292 3.63177 8.03164C4.49398 8.93035 5.67489 9.45414 6.9198 9.49003C6.99279 9.47998 7.06681 9.47998 7.1398 9.49003H7.2098C8.45978 9.45509 9.64547 8.92825 10.5092 8.02399C11.3729 7.11974 11.8448 5.91115 11.8224 4.66087C11.8 3.4106 11.2851 2.21969 10.3896 1.34695C9.49403 0.474209 8.29023 -0.00982993 7.0398 2.55307e-05Z" fill="#0096DF"/>
<path d="M12.12 12.15C10.5846 11.2369 8.83135 10.755 7.045 10.755C5.25865 10.755 3.50538 11.2369 1.97 12.15C1.39742 12.4803 0.916982 12.9492 0.572775 13.5136C0.228568 14.0779 0.0316185 14.7197 0 15.38C0.0308741 16.0366 0.226615 16.6748 0.569164 17.2358C0.911712 17.7969 1.39003 18.2626 1.96 18.59C3.48045 19.5434 5.24566 20.0334 7.04 20C8.83434 20.0334 10.5996 19.5434 12.12 18.59C12.6908 18.2586 13.1694 17.7892 13.5118 17.2249C13.8542 16.6606 14.0496 16.0194 14.08 15.36C14.047 14.7039 13.8504 14.0665 13.5081 13.5058C13.1658 12.9451 12.6886 12.479 12.12 12.15Z" fill="#0096DF"/>
</g>
<defs>
<clipPath id="clip0_143_8432">
<rect width="14.08" height="20" fill="white"/>
</clipPath>
</defs>
</svg>
