<svg width="47" height="47" viewBox="0 0 47 47" fill="none" xmlns="http://www.w3.org/2000/svg">
<circle cx="23.5" cy="23.5" r="23.5" fill="#EEECEE"/>
<g clip-path="url(#clip0_488_6898)">
<path d="M23.0398 14.0001C21.7944 14.0045 20.6006 14.4983 19.7159 15.3749C18.8313 16.2516 18.3267 17.4408 18.3109 18.6861C18.2952 19.9314 18.7696 21.133 19.6318 22.0318C20.494 22.9305 21.6749 23.4543 22.9198 23.4901C22.9928 23.4801 23.0668 23.4801 23.1398 23.4901H23.2098C24.4598 23.4552 25.6455 22.9284 26.5092 22.0241C27.3729 21.1199 27.8448 19.9113 27.8224 18.661C27.8 17.4107 27.2851 16.2198 26.3896 15.3471C25.494 14.4743 24.2902 13.9903 23.0398 14.0001Z" fill="#051a53"/>
<path d="M28.12 26.1504C26.5846 25.2373 24.8314 24.7554 23.045 24.7554C21.2586 24.7554 19.5054 25.2373 17.97 26.1504C17.3974 26.4807 16.917 26.9496 16.5728 27.5139C16.2286 28.0783 16.0316 28.7201 16 29.3804C16.0309 30.037 16.2266 30.6752 16.5692 31.2362C16.9117 31.7972 17.39 32.2629 17.96 32.5904C19.4804 33.5438 21.2457 34.0337 23.04 34.0004C24.8343 34.0337 26.5996 33.5438 28.12 32.5904C28.6908 32.2589 29.1694 31.7896 29.5118 31.2253C29.8542 30.6609 30.0496 30.0197 30.08 29.3604C30.047 28.7043 29.8504 28.0668 29.5081 27.5062C29.1658 26.9455 28.6886 26.4794 28.12 26.1504Z" fill="#051a53"/>
</g>
<defs>
<clipPath id="clip0_488_6898">
<rect width="14.08" height="20" fill="white" transform="translate(16 14)"/>
</clipPath>
</defs>
</svg>
