<svg width="144" height="144" viewBox="0 0 144 144" fill="none" xmlns="http://www.w3.org/2000/svg">
<circle cx="72" cy="72" r="72" fill="#051a53" fill-opacity="0.08"/>
<circle cx="72" cy="72" r="51" fill="#051a53"/>
<path d="M71.3106 71.6399C74.4209 71.6399 77.1142 70.5244 79.3148 68.3234C81.5154 66.1228 82.631 63.4303 82.631 60.3196C82.631 57.21 81.5154 54.5171 79.3145 52.3158C77.1135 50.1155 74.4206 49 71.3106 49C68.1999 49 65.5073 50.1155 63.3067 52.3161C61.1061 54.5167 59.9902 57.2097 59.9902 60.3196C59.9902 63.4303 61.1061 66.1232 63.3071 68.3238C65.5081 70.524 68.201 71.6399 71.3106 71.6399Z" fill="white"/>
<path d="M91.1171 85.1404C91.0536 84.2245 90.9253 83.2256 90.7363 82.1706C90.5455 81.1078 90.2999 80.1031 90.0059 79.1847C89.7021 78.2356 89.2891 77.2983 88.7784 76.4C88.2485 75.4677 87.626 74.6559 86.9275 73.9879C86.197 73.289 85.3027 72.7271 84.2686 72.3172C83.238 71.9095 82.096 71.703 80.8743 71.703C80.3945 71.703 79.9305 71.8999 79.0344 72.4833C78.4829 72.8429 77.8378 73.2589 77.1178 73.7189C76.5021 74.1112 75.6681 74.4788 74.6379 74.8115C73.6328 75.1367 72.6122 75.3017 71.605 75.3017C70.5977 75.3017 69.5776 75.1367 68.5714 74.8115C67.5423 74.4791 66.7082 74.1116 66.0933 73.7193C65.38 73.2635 64.7346 72.8476 64.1749 72.4829C63.2798 71.8995 62.8155 71.7026 62.3357 71.7026C61.1137 71.7026 59.9719 71.9095 58.9417 72.3176C57.9083 72.7267 57.0137 73.2886 56.2825 73.9882C55.5844 74.6566 54.9615 75.4681 54.4322 76.4C53.922 77.2983 53.5089 78.2352 53.2048 79.1851C52.9112 80.1034 52.6655 81.1078 52.4748 82.1706C52.2858 83.2241 52.1574 84.2235 52.0939 85.1414C52.0316 86.0407 52 86.9741 52 87.9168C52 90.3702 52.7799 92.3564 54.3179 93.8212C55.8368 95.2666 57.8466 95.9999 60.2907 95.9999H82.9214C85.3655 95.9999 87.3746 95.267 88.8939 93.8212C90.4322 92.3575 91.2121 90.3709 91.2121 87.9165C91.2118 86.9695 91.1799 86.0354 91.1171 85.1404Z" fill="white"/>
</svg>
