<svg width="47" height="47" viewBox="0 0 47 47" fill="none" xmlns="http://www.w3.org/2000/svg">
<circle cx="23.5" cy="23.5" r="23.5" fill="#D7EAF3"/>
<g clip-path="url(#clip0_2001_1096)">
<path d="M23.0398 14C21.7944 14.0044 20.6006 14.4982 19.7159 15.3748C18.8313 16.2514 18.3267 17.4407 18.3109 18.686C18.2952 19.9313 18.7696 21.1329 19.6318 22.0316C20.494 22.9304 21.6749 23.4541 22.9198 23.49C22.9928 23.48 23.0668 23.48 23.1398 23.49H23.2098C24.4598 23.4551 25.6455 22.9282 26.5092 22.024C27.3729 21.1197 27.8448 19.9111 27.8224 18.6609C27.8 17.4106 27.2851 16.2197 26.3896 15.3469C25.494 14.4742 24.2902 13.9902 23.0398 14Z" fill="#051a53"/>
<path d="M28.12 26.15C26.5846 25.2369 24.8314 24.755 23.045 24.755C21.2586 24.755 19.5054 25.2369 17.97 26.15C17.3974 26.4803 16.917 26.9492 16.5728 27.5136C16.2286 28.0779 16.0316 28.7197 16 29.38C16.0309 30.0366 16.2266 30.6748 16.5692 31.2358C16.9117 31.7969 17.39 32.2626 17.96 32.59C19.4804 33.5434 21.2457 34.0334 23.04 34C24.8343 34.0334 26.5996 33.5434 28.12 32.59C28.6908 32.2586 29.1694 31.7892 29.5118 31.2249C29.8542 30.6606 30.0496 30.0194 30.08 29.36C30.047 28.7039 29.8504 28.0665 29.5081 27.5058C29.1658 26.9451 28.6886 26.479 28.12 26.15Z" fill="#051a53"/>
</g>
<defs>
<clipPath id="clip0_2001_1096">
<rect width="14.08" height="20" fill="white" transform="translate(16 14)"/>
</clipPath>
</defs>
</svg>
