<svg width="35" height="29" viewBox="0 0 35 29" fill="none" xmlns="http://www.w3.org/2000/svg">
<path fill-rule="evenodd" clip-rule="evenodd" d="M13.7978 1.00068C14.7734 0.348538 15.9204 0.000304365 17.0939 0C18.6676 0.00162948 20.1763 0.627491 21.2891 1.74024C22.4018 2.853 23.0277 4.36174 23.0293 5.93542C23.029 7.1089 22.6808 8.25594 22.0287 9.23152C21.3765 10.2071 20.4497 10.9674 19.3655 11.4164C18.2813 11.8653 17.0883 11.9827 15.9374 11.7537C14.7865 11.5247 13.7293 10.9595 12.8996 10.1298C12.0698 9.29999 11.5047 8.24282 11.2757 7.0919C11.0467 5.94098 11.164 4.748 11.613 3.66379C12.0619 2.57958 12.8222 1.65282 13.7978 1.00068ZM20.1162 13.085H14.0716C12.7632 13.0866 11.5088 13.6071 10.5837 14.5323C9.6585 15.4574 9.13803 16.7118 9.1364 18.0202V28.012C9.1364 28.2736 9.24032 28.5246 9.42531 28.7095C9.6103 28.8945 9.86121 28.9985 10.1228 28.9985H24.0634C24.3251 28.9985 24.5759 28.8945 24.7609 28.7095C24.9459 28.5246 25.0498 28.2736 25.0498 28.012V18.0202C25.0482 16.712 24.528 15.4579 23.6031 14.5328C22.6783 13.6077 21.4244 13.087 20.1162 13.085ZM26.6072 15.6565H29.251C30.5592 15.6577 31.8135 16.1778 32.7388 17.1027C33.664 18.0276 34.1845 19.2818 34.1861 20.5901V26.0377C34.1853 26.8227 33.8731 27.5753 33.318 28.1304C32.763 28.6854 32.0103 28.9976 31.2253 28.9984H26.855C26.9672 28.6817 27.0245 28.3481 27.0243 28.012V18.0201C27.0248 17.2139 26.8836 16.4138 26.6072 15.6565ZM7.57893 15.6565C7.30244 16.4138 7.16128 17.2139 7.1619 18.0201V28.0136C7.16167 28.3496 7.21892 28.6832 7.33117 29H2.96078C2.17579 28.9992 1.42317 28.687 0.868093 28.1319C0.313015 27.5768 0.000814737 26.8242 0 26.0392V20.5916C0.00162886 19.2832 0.522104 18.0289 1.44727 17.1037C2.37244 16.1786 3.62677 15.6581 4.93515 15.6565H7.57893ZM6.67098 5.53224C5.79364 5.53254 4.93609 5.79296 4.20674 6.28057C3.47739 6.76819 2.90898 7.46109 2.57338 8.2717C2.23778 9.08232 2.15005 9.97423 2.32129 10.8347C2.49252 11.6952 2.91503 12.4855 3.5354 13.1059C4.15577 13.7263 4.94615 14.1488 5.80661 14.32C6.66708 14.4913 7.55899 14.4035 8.36961 14.0679C9.18022 13.7323 9.87313 13.1639 10.3607 12.4346C10.8484 11.7052 11.1088 10.8477 11.1091 9.97033C11.1074 8.79377 10.6393 7.66587 9.80739 6.83392C8.97544 6.00197 7.84754 5.53387 6.67098 5.53224ZM25.0492 6.28019C25.7791 5.79252 26.6371 5.53224 27.5149 5.53224C28.6915 5.53387 29.8193 6.00197 30.6513 6.83392C31.4832 7.66587 31.9514 8.79377 31.953 9.97033C31.953 10.8481 31.6927 11.7062 31.205 12.436C30.7174 13.1658 30.0243 13.7347 29.2133 14.0706C28.4023 14.4065 27.51 14.4944 26.649 14.3232C25.7881 14.1519 24.9974 13.7292 24.3767 13.1085C23.756 12.4879 23.3333 11.6971 23.1621 10.8362C22.9908 9.97526 23.0787 9.0829 23.4146 8.27194C23.7506 7.46098 24.3194 6.76785 25.0492 6.28019Z" fill="#051a53"/>
</svg>
