<svg width="99" height="99" viewBox="0 0 99 99" fill="none" xmlns="http://www.w3.org/2000/svg">
<circle cx="49.5" cy="49.5" r="49.5" fill="#EEB711" fill-opacity="0.33"/>
<circle cx="49.5" cy="49.5" r="34.5" fill="#EEB711"/>
<path fill-rule="evenodd" clip-rule="evenodd" d="M45.8906 55.4051L45.0036 36.2206C44.8046 31.9133 52.8935 31.9397 52.6957 36.2206L51.8087 55.4051V56.9637C51.8087 58.5913 50.4773 59.9227 48.8497 59.9227C47.222 59.9227 45.8906 58.5913 45.8906 56.9637V55.4051Z" fill="white"/>
<path d="M48.8497 66.9998C50.4808 66.9998 51.803 65.6776 51.803 64.0465C51.803 62.4155 50.4808 61.0933 48.8497 61.0933C47.2187 61.0933 45.8965 62.4155 45.8965 64.0465C45.8965 65.6776 47.2187 66.9998 48.8497 66.9998Z" fill="white"/>
</svg>
