<svg width="238" height="134" viewBox="0 0 238 134" fill="none" xmlns="http://www.w3.org/2000/svg">
<path fill-rule="evenodd" clip-rule="evenodd" d="M50.6852 106.282H150.954C151.521 106.282 152.074 106.221 152.606 106.106C153.139 106.221 153.692 106.282 154.259 106.282H211.556C215.815 106.282 219.269 102.842 219.269 98.5984C219.269 94.3547 215.815 90.9144 211.556 90.9144H204.944C200.685 90.9144 197.231 87.4742 197.231 83.2305C197.231 78.9867 200.685 75.5465 204.944 75.5465H225.88C230.139 75.5465 233.593 72.1063 233.593 67.8625C233.593 63.6188 230.139 60.1786 225.88 60.1786H201.639C205.899 60.1786 209.352 56.7384 209.352 52.4946C209.352 48.2509 205.899 44.8106 201.639 44.8106H131.12C135.38 44.8106 138.833 41.3704 138.833 37.1267C138.833 32.8829 135.38 29.4427 131.12 29.4427H68.3148C64.0551 29.4427 60.6018 32.8829 60.6018 37.1267C60.6018 41.3704 64.0551 44.8106 68.3148 44.8106H24.2407C19.981 44.8106 16.5278 48.2509 16.5278 52.4946C16.5278 56.7384 19.981 60.1786 24.2407 60.1786H51.787C56.0468 60.1786 59.5 63.6188 59.5 67.8625C59.5 72.1063 56.0468 75.5465 51.787 75.5465H7.71296C3.45321 75.5465 0 78.9867 0 83.2305C0 87.4742 3.45321 90.9144 7.71296 90.9144H50.6852C46.4254 90.9144 42.9722 94.3547 42.9722 98.5984C42.9722 102.842 46.4254 106.282 50.6852 106.282ZM230.287 106.282C234.547 106.282 238 102.842 238 98.5984C238 94.3547 234.547 90.9144 230.287 90.9144C226.027 90.9144 222.574 94.3547 222.574 98.5984C222.574 102.842 226.027 106.282 230.287 106.282Z" fill="#F3F7FF"/>
<path d="M165.278 121.65H189.99M51.7876 121.65H75.4269H51.7876ZM37.6045 121.65H45.1765H37.6045ZM195.169 121.65H198.334H195.169Z" stroke="#0096DF" stroke-width="2.58894" stroke-linecap="round" stroke-linejoin="round"/>
<path d="M89.251 6.72315L101.481 20.3931M146.657 6.72315L134.427 20.3931L146.657 6.72315ZM117.899 2V20.3931V2Z" stroke="#0096DF" stroke-opacity="0.38" stroke-width="2.58894" stroke-linecap="round" stroke-linejoin="round"/>
<path fill-rule="evenodd" clip-rule="evenodd" d="M83.5172 37.1267H152.5L146.323 46.3583L154.56 52.5126H81.458L90.7244 46.3583L83.5172 37.1267Z" fill="#E8F0FE"/>
<rect x="79.334" y="50.2992" width="78.2315" height="82.3282" rx="2.07115" fill="white"/>
<path fill-rule="evenodd" clip-rule="evenodd" d="M84.3857 95.3119V57.5938C84.3857 56.0398 85.6641 54.78 87.2411 54.78L154.428 125.124C154.428 127.196 152.763 128.875 150.71 128.875H88.1044C86.0506 128.875 84.3857 127.196 84.3857 125.124V111.106V107.303V95.3119ZM84.3857 103.456V99.2312Z" fill="#E8F0FE"/>
<path d="M80.4365 95.8136V54.5641C80.4365 52.8646 81.8364 51.4869 83.5633 51.4869H155.099C156.224 51.4869 157.135 52.4054 157.135 53.5384V128.417C157.135 130.683 155.312 132.519 153.063 132.519H84.5086C82.2596 132.519 80.4365 130.683 80.4365 128.417V113.087V108.928M80.4365 104.72V100.1" stroke="#0096DF" stroke-width="2.58894" stroke-linecap="round"/>
<path d="M82.4886 51.4869V39.1782C82.4886 38.0452 83.316 37.1267 84.3366 37.1267L152.713 37.1267C153.733 37.1267 154.561 38.0452 154.561 39.1782V51.4869" stroke="#0096DF" stroke-width="2.58894"/>
<path d="M101.536 73.0272C103.526 73.0272 105.14 71.4199 105.14 69.4372C105.14 67.4544 103.526 65.8471 101.536 65.8471C99.546 65.8471 97.9326 67.4544 97.9326 69.4372C97.9326 71.4199 99.546 73.0272 101.536 73.0272Z" fill="#E8F0FE" stroke="#0096DF" stroke-width="2.58894" stroke-linecap="round"/>
<path d="M135.513 73.0272C137.503 73.0272 139.116 71.4199 139.116 69.4372C139.116 67.4544 137.503 65.8471 135.513 65.8471C133.523 65.8471 131.909 67.4544 131.909 69.4372C131.909 71.4199 133.523 73.0272 135.513 73.0272Z" fill="#E8F0FE" stroke="#0096DF" stroke-width="2.58894" stroke-linecap="round"/>
<path d="M134.998 73.0272C134.998 82.0911 127.622 89.4389 118.524 89.4389C109.426 89.4389 102.051 82.0911 102.051 73.0272" stroke="#0096DF" stroke-width="2.58894" stroke-linecap="round"/>
<path d="M83.5807 38.1492L90.8291 45.2773C91.2622 45.7032 91.2667 46.3982 90.8392 46.8297C90.7653 46.9044 90.6809 46.9681 90.5888 47.0189L82.4883 51.4869" stroke="#0096DF" stroke-width="2.58894" stroke-linecap="round"/>
<path d="M153.642 38.2236L146.706 45.2714C146.28 45.7043 146.287 46.3993 146.721 46.8237C146.794 46.8945 146.876 46.9551 146.965 47.0035L155.215 51.4869" stroke="#0096DF" stroke-width="2.58894" stroke-linecap="round"/>
</svg>
