<svg width="32" height="32" viewBox="0 0 32 32" fill="none" xmlns="http://www.w3.org/2000/svg">
<g clip-path="url(#clip0_526_2095)">
<rect width="32" height="32" fill="white"/>
<rect x="1" y="1" width="30" height="30" rx="2" fill="#0096DF"/>
<g filter="url(#filter0_d_526_2095)">
<path d="M15.1821 4.36045C16.8535 3.63261 18.1878 4.01001 19.2526 5.46569C20.3444 6.94833 20.7892 8.68706 21.0857 10.4662C21.5036 12.9463 21.544 15.4533 21.3553 17.9738C21.3283 18.4186 20.3714 18.8634 20.0209 18.5803C19.8187 18.4186 19.9535 18.1625 19.967 17.9468C20.1288 14.9411 20.1153 11.9489 19.347 8.99707C19.1987 8.43097 19.01 7.87835 18.7809 7.35269C18.0935 5.7757 17.0287 4.61654 15.1821 4.36045Z" fill="white"/>
<path d="M28.66 15.2642C29.2666 16.2481 29.0374 17.7577 28.1613 18.6203C27.0965 19.6851 25.7487 20.2377 24.3334 20.6151C21.2469 21.4643 18.0929 21.4778 14.9254 21.2486C14.1571 21.1947 14.4402 20.5477 14.3863 20.1569C14.3189 19.6312 14.7772 19.8603 15.0063 19.8738C17.8503 20.0356 20.6942 20.0356 23.4978 19.4156C24.5356 19.1864 25.5195 18.8225 26.4226 18.2834C27.4335 17.6903 28.1479 16.8681 28.4444 15.709C28.4848 15.5607 28.5387 15.4124 28.5927 15.2776C28.6061 15.2642 28.6466 15.2642 28.66 15.2642Z" fill="white"/>
<path d="M18.3089 28.5815C16.4623 29.3363 15.0471 28.9723 13.9957 27.5167C12.8635 25.9532 12.4053 24.1201 12.0953 22.2466C11.7044 19.8878 11.7313 17.5156 11.8526 15.1299C11.8796 14.5638 12.594 14.119 13.1331 14.3077C13.4431 14.429 13.2814 14.6986 13.2679 14.8873C13.1196 16.8551 13.1196 18.8365 13.3083 20.8044C13.4566 22.3274 13.6992 23.8235 14.2923 25.2523C15.0201 27.018 16.1119 28.3658 18.3089 28.5815Z" fill="white"/>
<path d="M4.38561 18.0139C3.73864 16.72 3.92734 15.3856 4.78997 14.4825C5.90869 13.3099 7.36437 12.7977 8.87397 12.4068C11.3405 11.7599 13.8745 11.6385 16.4085 11.7059C16.9476 11.7194 17.4868 11.7599 18.0259 11.7599C18.3898 11.7599 18.5516 11.9081 18.565 12.272C18.6459 13.3773 18.8346 13.229 17.7563 13.1616C15.0606 12.9999 12.3784 13.0403 9.72311 13.5929C8.99527 13.7412 8.28091 13.9434 7.60698 14.2399C5.94912 14.9408 4.66866 15.9786 4.38561 18.0139Z" fill="white"/>
<path d="M25.2505 21.4514C24.8461 22.0175 24.4687 22.3815 23.8892 22.5297C21.0856 23.271 18.2551 23.5676 15.3707 23.325C14.7777 23.271 14.8451 22.8262 14.8181 22.5028C14.7777 22.0849 15.1685 22.2736 15.3572 22.2871C18.5517 22.5162 21.7056 22.3006 24.8192 21.4514C24.9 21.4245 25.0214 21.4514 25.2505 21.4514Z" fill="white"/>
<path d="M18.2821 10.8037C14.6698 10.5611 11.1519 10.642 7.70142 11.7607C8.03838 11.1003 8.48317 10.7229 9.03579 10.5611C11.8258 9.76588 14.6698 9.5637 17.5542 9.71196C18.309 9.7524 18.0664 10.3455 18.2821 10.8037Z" fill="white"/>
<path d="M21.4089 7.77051C21.9885 8.08051 22.4333 8.44443 22.622 9.10488C23.3633 11.841 23.6329 14.6176 23.4307 17.4346C23.4172 17.6503 23.5116 17.9198 23.2285 18.0142C22.9859 18.0951 22.7029 18.2838 22.4603 18.149C22.2581 18.0277 22.3929 17.7311 22.4063 17.5155C22.622 14.5233 22.4468 11.558 21.692 8.63313C21.5976 8.35009 21.5033 8.06704 21.4089 7.77051Z" fill="white"/>
<path d="M11.8933 25.4135C11.1924 24.834 10.7611 24.3487 10.5589 23.5939C9.85803 20.9117 9.6828 18.2025 9.81759 15.4529C9.84455 15.0216 10.3298 14.6442 10.7341 14.752C11.0307 14.8329 10.8689 15.089 10.8689 15.2507C10.7746 16.8142 10.7476 18.3912 10.8689 19.9547C10.9902 21.7609 11.3002 23.5131 11.8933 25.4135Z" fill="white"/>
<path d="M9.41327 22.9609C8.75282 22.4083 8.26759 21.95 8.18672 21.1144C8.02498 19.5104 7.93063 17.9065 7.89019 16.289C7.87671 15.6421 8.3215 15.5612 8.71238 15.4264C9.02239 15.3186 8.90108 15.6421 8.91456 15.7769C8.94152 16.7608 8.955 17.7447 8.98195 18.7287C8.99543 20.1035 9.18413 21.4783 9.41327 22.9609Z" fill="white"/>
<path d="M23.8081 9.9541C24.5359 10.5472 24.9942 11.0728 25.0751 11.9624C25.2234 13.5259 25.3177 15.0759 25.3447 16.6529C25.3447 16.8416 25.4255 17.0842 25.2368 17.219C25.0077 17.3808 24.7381 17.6099 24.4551 17.5156C24.2125 17.4347 24.3607 17.1247 24.3607 16.909C24.3472 14.6177 24.2394 12.3533 23.8081 9.9541Z" fill="white"/>
<path d="M10.0466 9.32092C10.5588 8.60656 11.071 8.17525 11.9336 8.09437C13.5241 7.94611 15.1146 7.85176 16.705 7.81133C17.352 7.79785 17.4059 8.25612 17.5811 8.63352C17.6755 8.83569 17.4868 8.83569 17.352 8.83569C14.9259 8.74135 12.5267 8.93004 10.0466 9.32092Z" fill="white"/>
<path d="M15.4111 24.2275C17.7564 24.3219 20.0343 24.1601 22.2987 23.8501C22.4335 23.8366 22.6356 23.7423 22.703 23.9445C22.7569 24.0927 22.5817 24.1601 22.5143 24.2679C21.9887 25.0362 21.1395 24.9419 20.3847 25.0362C19.1447 25.198 17.8777 25.1845 16.6242 25.2519C15.8694 25.2923 15.5055 25.0362 15.4111 24.2275Z" fill="white"/>
<path d="M26.3149 16.5184C26.2744 15.0762 26.2879 13.7148 26.0723 12.3535C27.5145 12.8792 27.5953 15.6962 26.3149 16.5184Z" fill="white"/>
<path d="M16.5027 26.2496C17.9314 26.1822 19.2658 26.1687 20.6271 25.98C20.061 27.3413 17.3788 27.5704 16.5027 26.2496Z" fill="white"/>
<path d="M16.4893 6.82696C15.0876 6.89436 13.6993 6.82696 12.3245 7.11001C13.1467 5.65433 15.5324 5.47911 16.4893 6.82696Z" fill="white"/>
<path d="M6.86554 16.4648C6.90597 16.5592 6.94641 16.5862 6.94641 16.6266C6.93293 17.934 7.0138 19.2414 7.14859 20.5758C5.74682 19.7536 5.59855 17.624 6.86554 16.4648Z" fill="white"/>
</g>
</g>
<defs>
<filter id="filter0_d_526_2095" x="4" y="4" width="35.9998" height="32.9644" filterUnits="userSpaceOnUse" color-interpolation-filters="sRGB">
<feFlood flood-opacity="0" result="BackgroundImageFix"/>
<feColorMatrix in="SourceAlpha" type="matrix" values="0 0 0 0 0 0 0 0 0 0 0 0 0 0 0 0 0 0 127 0" result="hardAlpha"/>
<feOffset dx="7" dy="4"/>
<feGaussianBlur stdDeviation="2"/>
<feComposite in2="hardAlpha" operator="out"/>
<feColorMatrix type="matrix" values="0 0 0 0 0 0 0 0 0 0 0 0 0 0 0 0 0 0 0.07 0"/>
<feBlend mode="normal" in2="BackgroundImageFix" result="effect1_dropShadow_526_2095"/>
<feBlend mode="normal" in="SourceGraphic" in2="effect1_dropShadow_526_2095" result="shape"/>
</filter>
<clipPath id="clip0_526_2095">
<rect width="32" height="32" fill="white"/>
</clipPath>
</defs>
</svg>
